<svg xmlns="http://www.w3.org/2000/svg" xmlns:xlink="http://www.w3.org/1999/xlink" width="329.514" height="329.468" viewBox="0 0 329.514 329.468">
  <defs>
    <clipPath id="clip-path">
      <circle id="Эллипс_3" data-name="Эллипс 3" cx="59.156" cy="59.156" r="59.156" fill="none"/>
    </clipPath>
  </defs>
  <g id="logo" transform="translate(0 0.001)">
    <g id="Сгруппировать_16" data-name="Сгруппировать 16" transform="translate(0 -0.001)">
      <g id="Сгруппировать_12" data-name="Сгруппировать 12" transform="translate(105.57 105.542)" clip-path="url(#clip-path)">
        <g id="Сгруппировать_11" data-name="Сгруппировать 11" transform="translate(-24.274 -24.272)">
          <path id="Контур_154" data-name="Контур 154" d="M456.21,539.489l.03.03,83.4,83.4h0l83.429-83.431-48.3-48.3-30.736,30.737L557.2,535.1l17.563-17.563,21.956,21.954-57.082,57.084-57.084-57.084,70.256-70.256L539.641,456.06Z" transform="translate(-456.21 -456.06)" fill="#1ed65b"/>
          <path id="Контур_155" data-name="Контур 155" d="M653.34,620.494h0l48.3,48.3h0l48.3-48.3-13.174-13.172L701.643,642.45l-4.393-4.391,17.565-17.565-13.172-13.172-17.565,17.563-4.391-4.391L732.378,567.8,719.206,554.63Z" transform="translate(-618.212 -537.065)" fill="#1ed65b"/>
        </g>
      </g>
      <g id="Сгруппировать_13" data-name="Сгруппировать 13" transform="translate(0 0)">
        <path id="Контур_156" data-name="Контур 156" d="M993.182,18.06l3.658,4.786L994.1,40.221l-3.812-.6,2.489-15.79-2.47-3.635-3.4,2.609-2.5,15.888-3.812-.6,2.755-17.472,4.84-3.347L984.61,12.6l1.4-8.86,3.812.6-1.148,7.276,2.436,3.528,3.469-2.7,1.132-7.178,3.812.6-1.4,8.86-4.938,3.331Z" transform="translate(-805.851 -3.073)" fill="#1ed65b"/>
        <path id="Контур_157" data-name="Контур 157" d="M1094.9,36.355l.688-2.358a1.662,1.662,0,0,0-.043-1.108,1.37,1.37,0,0,0-.98-.756l-2.791-.813a1.373,1.373,0,0,0-1.233.11,1.666,1.666,0,0,0-.631.912l-6.9,23.668a1.662,1.662,0,0,0,.043,1.108,1.37,1.37,0,0,0,.98.756l2.791.813a1.374,1.374,0,0,0,1.233-.11,1.666,1.666,0,0,0,.631-.912l4.152-14.24L1090,42.6l1.08-3.7,6.542,1.907-5.146,17.656a7.592,7.592,0,0,1-.884,1.96,5.135,5.135,0,0,1-1.4,1.472,4.506,4.506,0,0,1-1.939.74,5.882,5.882,0,0,1-2.514-.237l-2.791-.813a6.471,6.471,0,0,1-2.261-1.1,4.3,4.3,0,0,1-1.265-1.57,4.685,4.685,0,0,1-.414-1.894,6.988,6.988,0,0,1,.294-2.08l6.9-23.668a6.963,6.963,0,0,1,.871-1.912,4.678,4.678,0,0,1,1.367-1.376,4.317,4.317,0,0,1,1.91-.643,6.49,6.49,0,0,1,2.5.285l2.79.813a6.47,6.47,0,0,1,2.261,1.1,4.333,4.333,0,0,1,1.265,1.57A4.7,4.7,0,0,1,1099.59,33a6.976,6.976,0,0,1-.294,2.08l-.688,2.358Z" transform="translate(-886.737 -22.439)" fill="#1ed65b"/>
        <path id="Контур_158" data-name="Контур 158" d="M1174.206,92.4l-3.96-1.7,1.454-11.374-2.071-.891-4.355,10.127-3.544-1.524,13.737-31.947,6.72,2.89a6.486,6.486,0,0,1,2.11,1.372,4.574,4.574,0,0,1,1.087,1.721,4.508,4.508,0,0,1,.2,1.941,7.033,7.033,0,0,1-.545,2.03l-5.146,11.97a5.509,5.509,0,0,1-2.08,2.678,5,5,0,0,1-2.708.718l-.9,11.993Zm7.247-28.9a1.755,1.755,0,0,0,.116-1.1,1.359,1.359,0,0,0-.9-.879l-3.175-1.367-6.335,14.732,3.176,1.367a1.727,1.727,0,0,0,1.119.127,1.405,1.405,0,0,0,.857-.914Z" transform="translate(-954.712 -45.273)" fill="#1ed65b"/>
        <path id="Контур_159" data-name="Контур 159" d="M1272,115.858a5.1,5.1,0,0,1-.832,3.954l-6.549,11.205a7.017,7.017,0,0,1-1.31,1.643,4.669,4.669,0,0,1-1.661,1,4.323,4.323,0,0,1-2.01.16,6.464,6.464,0,0,1-2.356-.884l-2.6-1.516a6.45,6.45,0,0,1-1.926-1.62,4.3,4.3,0,0,1-.846-1.83,4.67,4.67,0,0,1,.059-1.939,7.028,7.028,0,0,1,.79-1.948l4.8-8.22,3.331,1.948-4.8,8.22a1.745,1.745,0,0,0-.249,1.073,1.359,1.359,0,0,0,.789.984l2.6,1.516a1.376,1.376,0,0,0,1.222.192,1.671,1.671,0,0,0,.834-.732l6.549-11.205a1.375,1.375,0,0,0,.193-1.222,1.668,1.668,0,0,0-.73-.834l-2.9-1.695,1.948-3.331,7.509-3.215.328-.563-8.523-4.982,1.948-3.331,11.854,6.928-2.933,5.018L1270,112.973a5.5,5.5,0,0,1,2,2.881Z" transform="translate(-1028.763 -81.103)" fill="#1ed65b"/>
        <path id="Контур_160" data-name="Контур 160" d="M1352.775,164.585l-2.324,3.079-6.16-4.647-4.316,5.72,4.64,3.5-2.354,3.12-4.64-3.5-9.628,12.759,6.16,4.647-2.324,3.079-9.24-6.973,20.947-27.76,9.24,6.973Z" transform="translate(-1086.907 -129.524)" fill="#1ed65b"/>
        <path id="Контур_161" data-name="Контур 161" d="M1387.47,244.671l24.091-25.081,2.783,2.673-4.061,4.229-.011,8.258,8.192-8.529,2.783,2.673-24.091,25.081-2.783-2.673,12.427-12.937-.128-8.113-16.419,17.095-2.783-2.673Z" transform="translate(-1140.225 -180.459)" fill="#1ed65b"/>
        <path id="Контур_162" data-name="Контур 162" d="M1477.527,315.8l-.5,6.005-13.691,11.041-2.422-3,12.444-10.034.609-4.353-4.275-.351-12.52,10.1-2.422-3,13.769-11.105,5.832.768.485-5.865,6.982-5.631,2.422,3L1478.506,308l-.563,4.252,4.384.326,5.656-4.562,2.422,3-6.982,5.631-5.9-.845Z" transform="translate(-1195.516 -246.844)" fill="#1ed65b"/>
        <path id="Контур_163" data-name="Контур 163" d="M1549.765,412.061l2.09-1.287a1.664,1.664,0,0,0,.713-.85,1.37,1.37,0,0,0-.219-1.217l-1.524-2.475a1.37,1.37,0,0,0-.989-.745,1.667,1.667,0,0,0-1.08.253l-21,12.923a1.664,1.664,0,0,0-.713.85,1.365,1.365,0,0,0,.221,1.217l1.524,2.475a1.371,1.371,0,0,0,.987.745,1.667,1.667,0,0,0,1.08-.253l12.631-7.775-1.55-2.518,3.286-2.023,3.573,5.8-15.662,9.639a7.572,7.572,0,0,1-1.971.861,5.136,5.136,0,0,1-2.022.157,4.508,4.508,0,0,1-1.933-.752,5.887,5.887,0,0,1-1.705-1.862l-1.524-2.475a6.479,6.479,0,0,1-.937-2.336,4.3,4.3,0,0,1,.116-2.012,4.666,4.666,0,0,1,.964-1.682,7.033,7.033,0,0,1,1.613-1.345l21-12.923a7.054,7.054,0,0,1,1.928-.834,4.68,4.68,0,0,1,1.937-.1,4.314,4.314,0,0,1,1.848.8,6.477,6.477,0,0,1,1.663,1.889l1.524,2.475a6.472,6.472,0,0,1,.937,2.336,4.35,4.35,0,0,1-.114,2.012,4.672,4.672,0,0,1-.966,1.682,7.029,7.029,0,0,1-1.613,1.345l-2.09,1.287-2.023-3.286Z" transform="translate(-1251.586 -329.92)" fill="#1ed65b"/>
        <path id="Контур_164" data-name="Контур 164" d="M1574.275,529.957l-2.8-6.269-6.413,1.985-1.573-3.523,33.369-10.56,3.35,7.5-30.123,17.836-1.593-3.569,5.779-3.4Zm3.04-1.8,17.964-10.653-.531-1.19-19.9,6.3,2.471,5.537Z" transform="translate(-1284.879 -420.425)" fill="#1ed65b"/>
        <path id="Контур_165" data-name="Контур 165" d="M1648.128,637.486,1614.409,646l-.944-3.74,14.575-3.68,15.913-3.5-.344-1.36-23.123,1.96-1.57-6.219,21.284-9.248-.344-1.36-15.667,4.471L1609.614,627l-.944-3.74,33.719-8.511,1.926,7.629L1622.92,631.4l.171.681,23.111-2.217,1.925,7.629Z" transform="translate(-1322.008 -505.202)" fill="#1ed65b"/>
        <path id="Контур_166" data-name="Контур 166" d="M1679.5,797.784l-3.84.371-.741-7.682-7.133.688.558,5.786-3.89.376-.558-5.786-15.911,1.536.741,7.68-3.84.371L1643.77,789.6l34.615-3.341,1.112,11.522Z" transform="translate(-1350.853 -646.15)" fill="#1ed65b"/>
        <path id="Контур_167" data-name="Контур 167" d="M1681.5,889.823a1.759,1.759,0,0,0-1.046-.347l-4.459-.091a1.724,1.724,0,0,0-1.083.3,1.4,1.4,0,0,0-.449,1.169l-.05,2.456a6.473,6.473,0,0,1-.478,2.472,4.316,4.316,0,0,1-1.187,1.63,4.71,4.71,0,0,1-1.723.891,7.057,7.057,0,0,1-2.085.258l-13.327-.274a7.06,7.06,0,0,1-2.072-.342,4.668,4.668,0,0,1-1.684-.962,4.324,4.324,0,0,1-1.119-1.677,6.493,6.493,0,0,1-.374-2.488l.05-2.456a6.471,6.471,0,0,1,.478-2.472,4.3,4.3,0,0,1,1.187-1.629,4.672,4.672,0,0,1,1.723-.893,7.06,7.06,0,0,1,2.085-.258l10.371.212-.078,3.858-10.371-.212a1.749,1.749,0,0,0-1.059.3,1.365,1.365,0,0,0-.476,1.169l-.05,2.456a1.373,1.373,0,0,0,.427,1.162,1.674,1.674,0,0,0,1.044.372l13.326.273a1.655,1.655,0,0,0,1.058-.33,1.374,1.374,0,0,0,.474-1.142l.05-2.456a6.475,6.475,0,0,1,.476-2.472,4.3,4.3,0,0,1,1.187-1.629,4.672,4.672,0,0,1,1.723-.891,7.064,7.064,0,0,1,2.085-.258l4.458.091a7.059,7.059,0,0,1,2.073.342,4.685,4.685,0,0,1,1.684.962,4.33,4.33,0,0,1,1.119,1.677,6.454,6.454,0,0,1,.374,2.489l-.05,2.456a6.478,6.478,0,0,1-.477,2.472,4.321,4.321,0,0,1-1.187,1.63,4.689,4.689,0,0,1-1.721.891,7.062,7.062,0,0,1-2.085.258l-2.456-.05.078-3.858,2.456.05a1.663,1.663,0,0,0,1.06-.33,1.373,1.373,0,0,0,.474-1.142l.05-2.456a1.355,1.355,0,0,0-.428-1.187Z" transform="translate(-1356.268 -727.386)" fill="#1ed65b"/>
        <path id="Контур_168" data-name="Контур 168" d="M1663.572,986.228l-4.754,3.7-17.4-2.578.567-3.817,15.812,2.345,3.614-2.5-2.639-3.38-15.911-2.359.565-3.817,17.5,2.595,3.391,4.808,4.64-3.617,8.873,1.315-.567,3.817-7.287-1.08-3.507,2.47,2.732,3.445,7.187,1.066-.567,3.817-8.873-1.315-3.375-4.908Z" transform="translate(-1348.922 -800.287)" fill="#1ed65b"/>
        <path id="Контур_169" data-name="Контур 169" d="M1651.106,1087.937l2.363.667a1.673,1.673,0,0,0,1.108-.052,1.371,1.371,0,0,0,.747-.987l.788-2.8a1.371,1.371,0,0,0-.121-1.231,1.67,1.67,0,0,0-.918-.624l-23.731-6.684a1.672,1.672,0,0,0-1.108.052,1.367,1.367,0,0,0-.747.987l-.788,2.8a1.373,1.373,0,0,0,.121,1.231,1.672,1.672,0,0,0,.918.624l14.277,4.022.8-2.846,3.714,1.046-1.848,6.56-17.7-4.986a7.6,7.6,0,0,1-1.969-.866,5.135,5.135,0,0,1-1.484-1.381,4.527,4.527,0,0,1-.757-1.932,5.882,5.882,0,0,1,.214-2.516l.788-2.8a6.454,6.454,0,0,1,1.083-2.272,4.314,4.314,0,0,1,1.557-1.279,4.672,4.672,0,0,1,1.891-.43,7.035,7.035,0,0,1,2.083.274l23.731,6.684a7.031,7.031,0,0,1,1.921.854,4.664,4.664,0,0,1,1.388,1.354,4.314,4.314,0,0,1,.661,1.9,6.482,6.482,0,0,1-.262,2.5l-.788,2.8a6.482,6.482,0,0,1-1.082,2.272,4.349,4.349,0,0,1-1.557,1.279,4.705,4.705,0,0,1-1.891.431,7.033,7.033,0,0,1-2.083-.274l-2.363-.667,1.046-3.714Z" transform="translate(-1335.194 -881.168)" fill="#1ed65b"/>
        <path id="Контур_170" data-name="Контур 170" d="M1586.993,1167.862l1.666-3.974,11.387,1.353.871-2.079-10.166-4.263,1.491-3.559,32.07,13.448-2.83,6.747a6.463,6.463,0,0,1-1.353,2.122,4.565,4.565,0,0,1-1.713,1.1,4.5,4.5,0,0,1-1.939.219,7.037,7.037,0,0,1-2.035-.527l-12.014-5.038a5.517,5.517,0,0,1-2.7-2.055,4.993,4.993,0,0,1-.741-2.7l-12-.795Zm28.966,6.985a1.75,1.75,0,0,0,1.1.107,1.36,1.36,0,0,0,.871-.912l1.337-3.188-14.787-6.2-1.337,3.188a1.722,1.722,0,0,0-.116,1.119,1.4,1.4,0,0,0,.921.848l12.014,5.038Z" transform="translate(-1304.191 -949.46)" fill="#1ed65b"/>
        <path id="Контур_171" data-name="Контур 171" d="M1574.085,1265.732a5.1,5.1,0,0,1-3.961-.795l-11.264-6.447a7.038,7.038,0,0,1-1.655-1.294,4.675,4.675,0,0,1-1.018-1.65,4.3,4.3,0,0,1-.178-2.008,6.488,6.488,0,0,1,.862-2.365l1.494-2.609a6.457,6.457,0,0,1,1.6-1.94,4.3,4.3,0,0,1,1.821-.863,4.667,4.667,0,0,1,1.939.043,7.024,7.024,0,0,1,1.953.771l8.263,4.729-1.917,3.348-8.263-4.729a1.744,1.744,0,0,0-1.074-.24,1.362,1.362,0,0,0-.977.8l-1.493,2.609a1.373,1.373,0,0,0-.182,1.224,1.673,1.673,0,0,0,.74.827l11.264,6.449a1.373,1.373,0,0,0,1.224.182,1.665,1.665,0,0,0,.827-.74l1.668-2.913,3.348,1.917,3.282,7.479.565.324,4.9-8.568,3.348,1.917-6.822,11.916-5.045-2.889-2.393-6.51a5.5,5.5,0,0,1-2.864,2.028Z" transform="translate(-1278.695 -1023.701)" fill="#1ed65b"/>
        <path id="Контур_172" data-name="Контур 172" d="M1528.2,1346.848l-3.1-2.3,4.592-6.2-5.759-4.264-3.459,4.671-3.142-2.325,3.459-4.671-12.846-9.512-4.592,6.2-3.1-2.3,6.889-9.3,27.947,20.7-6.889,9.3Z" transform="translate(-1232.908 -1082.189)" fill="#1ed65b"/>
        <path id="Контур_173" data-name="Контур 173" d="M1450.075,1382.16l25.3,23.863-2.648,2.807-4.264-4.022-8.258.064,8.6,8.113-2.648,2.807-25.3-23.863,2.648-2.806,13.05,12.31,8.112-.2-17.242-16.262,2.648-2.807Z" transform="translate(-1184.101 -1135.861)" fill="#1ed65b"/>
        <path id="Контур_174" data-name="Контур 174" d="M1388.495,1472.73l-6.009-.446L1371.32,1458.7l2.981-2.45,10.148,12.351,4.359.568.312-4.277-10.211-12.427,2.981-2.45,11.228,13.668-.715,5.84,5.868.433,5.7,6.93-2.981,2.45-4.676-5.692-4.257-.524-.287,4.387,4.612,5.613-2.981,2.45-5.694-6.93.791-5.9Z" transform="translate(-1126.953 -1191.62)" fill="#1ed65b"/>
        <path id="Контур_175" data-name="Контур 175" d="M1320.761,1545.663l1.306,2.08a1.659,1.659,0,0,0,.857.7,1.367,1.367,0,0,0,1.215-.232l2.461-1.547a1.372,1.372,0,0,0,.736-.994,1.677,1.677,0,0,0-.262-1.078l-13.114-20.876a1.661,1.661,0,0,0-.857-.7,1.368,1.368,0,0,0-1.215.232l-2.461,1.547a1.368,1.368,0,0,0-.736.994,1.678,1.678,0,0,0,.262,1.078l7.891,12.559,2.5-1.573,2.053,3.266-5.77,3.625-9.783-15.573a7.567,7.567,0,0,1-.879-1.964,5.139,5.139,0,0,1-.175-2.021,4.517,4.517,0,0,1,.734-1.941,5.865,5.865,0,0,1,1.848-1.723l2.461-1.547a6.505,6.505,0,0,1,2.327-.959,4.3,4.3,0,0,1,2.014.1,4.668,4.668,0,0,1,1.691.95,7.069,7.069,0,0,1,1.361,1.6l13.114,20.876a7.031,7.031,0,0,1,.852,1.921,4.682,4.682,0,0,1,.121,1.935,4.313,4.313,0,0,1-.788,1.855,6.5,6.5,0,0,1-1.875,1.68l-2.461,1.547a6.491,6.491,0,0,1-2.327.959,4.348,4.348,0,0,1-2.014-.1,4.7,4.7,0,0,1-1.691-.95,7.066,7.066,0,0,1-1.361-1.6l-1.306-2.079,3.266-2.053Z" transform="translate(-1072.255 -1248.269)" fill="#1ed65b"/>
        <path id="Контур_176" data-name="Контур 176" d="M1208.062,1570.964l6.242-2.855-2.044-6.394,3.509-1.606,10.865,33.271-7.474,3.418-18.11-29.957,3.555-1.625,3.455,5.749Zm1.823,3.022,10.817,17.865,1.185-.542-6.488-19.846-5.513,2.522Z" transform="translate(-987.025 -1282.101)" fill="#1ed65b"/>
        <path id="Контур_177" data-name="Контур 177" d="M1073.947,1645.7l-8.817-33.64,3.733-.978,3.812,14.541,3.644,15.881,1.358-.356-2.17-23.105,6.2-1.625,9.441,21.2,1.358-.357-4.614-15.626-3.812-14.541,3.733-.978,8.817,33.64-7.611,1.994-9.211-21.311-.679.178,2.425,23.089-7.611,1.994Z" transform="translate(-875.326 -1319.904)" fill="#1ed65b"/>
        <path id="Контур_178" data-name="Контур 178" d="M989.289,1678.307l-.4-3.837,7.675-.811-.752-7.126-5.781.611-.41-3.887,5.781-.609-1.679-15.9-7.675.811-.4-3.837,11.512-1.215,3.653,34.583-11.512,1.215Z" transform="translate(-810 -1349.817)" fill="#1ed65b"/>
        <path id="Контур_179" data-name="Контур 179" d="M903.882,1681.315a1.752,1.752,0,0,0,.339-1.048l.052-4.46a1.722,1.722,0,0,0-.314-1.081,1.4,1.4,0,0,0-1.172-.44l-2.456-.029a6.487,6.487,0,0,1-2.475-.454,4.355,4.355,0,0,1-1.641-1.171,4.685,4.685,0,0,1-.907-1.714,7.041,7.041,0,0,1-.276-2.083l.151-13.327a7.029,7.029,0,0,1,.324-2.076,4.7,4.7,0,0,1,.946-1.693,4.325,4.325,0,0,1,1.666-1.133,6.477,6.477,0,0,1,2.486-.4l2.456.029a6.483,6.483,0,0,1,2.475.454,4.321,4.321,0,0,1,1.641,1.171,4.644,4.644,0,0,1,.907,1.714,7.031,7.031,0,0,1,.276,2.083l-.119,10.373-3.858-.045.118-10.373a1.741,1.741,0,0,0-.314-1.055,1.364,1.364,0,0,0-1.173-.465l-2.456-.029a1.373,1.373,0,0,0-1.158.438,1.669,1.669,0,0,0-.364,1.048l-.151,13.328a1.663,1.663,0,0,0,.339,1.057,1.37,1.37,0,0,0,1.148.463l2.456.029a6.443,6.443,0,0,1,2.475.454,4.324,4.324,0,0,1,1.641,1.171,4.672,4.672,0,0,1,.907,1.714,7.032,7.032,0,0,1,.276,2.083l-.052,4.46a7.03,7.03,0,0,1-.324,2.076,4.68,4.68,0,0,1-.946,1.693,4.32,4.32,0,0,1-1.666,1.133,6.475,6.475,0,0,1-2.486.4l-2.456-.028a6.483,6.483,0,0,1-2.475-.455,4.355,4.355,0,0,1-1.641-1.171,4.686,4.686,0,0,1-.907-1.714,7.043,7.043,0,0,1-.276-2.083l.029-2.456,3.858.045-.028,2.455a1.667,1.667,0,0,0,.339,1.057,1.37,1.37,0,0,0,1.148.463l2.456.029a1.357,1.357,0,0,0,1.183-.438Z" transform="translate(-735.428 -1356.142)" fill="#1ed65b"/>
        <path id="Контур_180" data-name="Контур 180" d="M784.694,1664.511l-3.746-4.72,2.42-17.421,3.822.531-2.2,15.833,2.536,3.591,3.356-2.671,2.213-15.933,3.822.531-2.434,17.52-4.777,3.434,3.66,4.606-1.235,8.885-3.822-.531,1.014-7.3-2.5-3.484-3.42,2.762-1,7.2-3.822-.531,1.235-8.885,4.877-3.42Z" transform="translate(-639.838 -1349.702)" fill="#1ed65b"/>
        <path id="Контур_181" data-name="Контур 181" d="M674.757,1652.752l-.643,2.37a1.667,1.667,0,0,0,.062,1.107,1.379,1.379,0,0,0,.994.738l2.8.763a1.363,1.363,0,0,0,1.23-.134,1.661,1.661,0,0,0,.615-.923l6.467-23.791a1.667,1.667,0,0,0-.062-1.107,1.372,1.372,0,0,0-.994-.738l-2.8-.763a1.369,1.369,0,0,0-1.231.134,1.668,1.668,0,0,0-.615.923l-3.892,14.313,2.853.775-1.012,3.723-6.576-1.787,4.824-17.747a7.545,7.545,0,0,1,.848-1.976,5.078,5.078,0,0,1,1.369-1.5,4.53,4.53,0,0,1,1.925-.775,5.879,5.879,0,0,1,2.518.191l2.8.763a6.471,6.471,0,0,1,2.281,1.062,4.316,4.316,0,0,1,1.294,1.547,4.663,4.663,0,0,1,.447,1.887,7.02,7.02,0,0,1-.255,2.085l-6.467,23.789a6.987,6.987,0,0,1-.836,1.928,4.671,4.671,0,0,1-1.342,1.4,4.313,4.313,0,0,1-1.9.679,6.461,6.461,0,0,1-2.505-.241l-2.8-.763a6.493,6.493,0,0,1-2.281-1.062,4.344,4.344,0,0,1-1.294-1.545,4.691,4.691,0,0,1-.447-1.887,7.014,7.014,0,0,1,.255-2.085l.645-2.37,3.723,1.012Z" transform="translate(-550.713 -1336.493)" fill="#1ed65b"/>
        <path id="Контур_182" data-name="Контур 182" d="M579.037,1589.57l3.99,1.631-1.247,11.4,2.087.854,4.17-10.205,3.571,1.459L578.45,1626.9l-6.771-2.767a6.489,6.489,0,0,1-2.135-1.333,4.38,4.38,0,0,1-1.354-3.639,7.016,7.016,0,0,1,.508-2.039l4.929-12.06a5.521,5.521,0,0,1,2.03-2.716,4.994,4.994,0,0,1,2.694-.766l.684-12.009Zm-6.722,29.029a1.752,1.752,0,0,0-.1,1.1,1.36,1.36,0,0,0,.92.862l3.2,1.308,6.066-14.844-3.2-1.308a1.718,1.718,0,0,0-1.121-.1,1.4,1.4,0,0,0-.839.928Z" transform="translate(-466.923 -1306.311)" fill="#1ed65b"/>
        <path id="Контур_183" data-name="Контур 183" d="M463.629,1577.371a5.109,5.109,0,0,1,.759-3.968l6.346-11.321a7.038,7.038,0,0,1,1.28-1.666,4.7,4.7,0,0,1,1.641-1.033,4.311,4.311,0,0,1,2.006-.2,6.469,6.469,0,0,1,2.372.841l2.623,1.47a6.443,6.443,0,0,1,1.955,1.584,4.293,4.293,0,0,1,.879,1.814,4.654,4.654,0,0,1-.025,1.939,7.067,7.067,0,0,1-.754,1.96l-4.655,8.306-3.366-1.887,4.655-8.306a1.745,1.745,0,0,0,.23-1.076,1.358,1.358,0,0,0-.807-.969l-2.623-1.47a1.375,1.375,0,0,0-1.226-.171,1.665,1.665,0,0,0-.82.746l-6.346,11.321a1.375,1.375,0,0,0-.169,1.226,1.677,1.677,0,0,0,.747.821l2.93,1.641-1.887,3.366-7.45,3.35-.319.568,8.611,4.826-1.887,3.366-11.977-6.713,2.842-5.072,6.488-2.452a5.5,5.5,0,0,1-2.053-2.846Z" transform="translate(-375.029 -1281.311)" fill="#1ed65b"/>
        <path id="Контур_184" data-name="Контур 184" d="M370.2,1532.244l2.268-3.122,6.242,4.537,4.213-5.8-4.7-3.416,2.3-3.161,4.7,3.416,9.4-12.932-6.242-4.537,2.268-3.122,9.364,6.8-20.443,28.134Z" transform="translate(-304.231 -1236.08)" fill="#1ed65b"/>
        <path id="Контур_185" data-name="Контур 185" d="M317.3,1454.464l-23.633,25.512-2.83-2.621,3.985-4.3-.139-8.256-8.037,8.677-2.83-2.621,23.633-25.513,2.83,2.623-12.191,13.16.274,8.11,16.107-17.389,2.83,2.621Z" transform="translate(-233.244 -1187.783)" fill="#1ed65b"/>
        <path id="Контур_186" data-name="Контур 186" d="M217.189,1393.651l.392-6.012,13.488-11.289,2.477,2.96-12.258,10.259-.529,4.364,4.28.273,12.335-10.323,2.477,2.958-13.564,11.353-5.847-.661-.38,5.872-6.878,5.756L210.7,1406.2l5.649-4.728.485-4.261-4.389-.248-5.572,4.663-2.477-2.958,6.878-5.758Z" transform="translate(-167.976 -1131.087)" fill="#1ed65b"/>
        <path id="Контур_187" data-name="Контур 187" d="M152.618,1326.491l-2.067,1.324a1.666,1.666,0,0,0-.7.862,1.371,1.371,0,0,0,.242,1.214l1.568,2.447a1.367,1.367,0,0,0,1,.727,1.67,1.67,0,0,0,1.075-.273l20.757-13.3a1.666,1.666,0,0,0,.7-.862,1.372,1.372,0,0,0-.242-1.214l-1.568-2.447a1.376,1.376,0,0,0-1-.727,1.66,1.66,0,0,0-1.075.273l-12.488,8,1.595,2.49-3.249,2.081-3.678-5.738,15.482-9.924a7.529,7.529,0,0,1,1.955-.9,5.109,5.109,0,0,1,2.019-.193,4.54,4.54,0,0,1,1.948.716,5.872,5.872,0,0,1,1.739,1.832l1.568,2.447a6.454,6.454,0,0,1,.98,2.318,4.286,4.286,0,0,1-.078,2.014,4.674,4.674,0,0,1-.934,1.7,7.055,7.055,0,0,1-1.588,1.376l-20.757,13.3a7.08,7.08,0,0,1-1.914.87,4.664,4.664,0,0,1-1.935.139,4.337,4.337,0,0,1-1.862-.77,6.453,6.453,0,0,1-1.7-1.859l-1.568-2.447a6.506,6.506,0,0,1-.98-2.318,4.334,4.334,0,0,1,.078-2.014,4.7,4.7,0,0,1,.934-1.7,7.056,7.056,0,0,1,1.588-1.376l2.067-1.326,2.081,3.249Z" transform="translate(-119.806 -1076.812)" fill="#1ed65b"/>
        <path id="Контур_188" data-name="Контур 188" d="M111.922,1214.056l2.912,6.217,6.376-2.1,1.638,3.494-33.172,11.169-3.486-7.441,29.791-18.385,1.659,3.539-5.717,3.509Zm-3.006,1.851-17.766,10.979.552,1.18,19.785-6.668Z" transform="translate(-70.831 -991.923)" fill="#1ed65b"/>
        <path id="Контур_189" data-name="Контур 189" d="M22.21,1080.56l33.558-9.12,1.012,3.722L42.273,1079.1l-15.847,3.787.367,1.354,23.084-2.379,1.682,6.189-21.113,9.632.367,1.354,15.585-4.754,14.507-3.942,1.012,3.723-33.558,9.12L26.3,1095.6l21.227-9.4-.184-.677-23.066,2.634-2.064-7.591Z" transform="translate(-18.252 -880.511)" fill="#1ed65b"/>
        <path id="Контур_190" data-name="Контур 190" d="M6.12,996.137l3.833-.44.88,7.666,7.119-.818-.663-5.775,3.883-.446.663,5.775,15.881-1.823-.88-7.666,3.833-.44,1.32,11.5L7.44,1007.638l-1.32-11.5Z" transform="translate(-5.029 -815.367)" fill="#1ed65b"/>
        <path id="Контур_191" data-name="Контур 191" d="M4.307,911.872a1.732,1.732,0,0,0,1.051.328l4.46.011a1.731,1.731,0,0,0,1.078-.323,1.4,1.4,0,0,0,.429-1.176l.005-2.456a6.471,6.471,0,0,1,.431-2.479,4.326,4.326,0,0,1,1.157-1.65,4.7,4.7,0,0,1,1.705-.923,7,7,0,0,1,2.08-.3l13.329.03a7,7,0,0,1,2.08.3,4.7,4.7,0,0,1,1.7.93,4.326,4.326,0,0,1,1.149,1.655,6.5,6.5,0,0,1,.421,2.48l-.005,2.456a6.474,6.474,0,0,1-.431,2.481,4.293,4.293,0,0,1-1.157,1.65,4.677,4.677,0,0,1-1.705.923,7.013,7.013,0,0,1-2.08.3l-10.373-.023.009-3.858,10.373.023a1.761,1.761,0,0,0,1.053-.323,1.36,1.36,0,0,0,.454-1.176l.005-2.456a1.369,1.369,0,0,0-.449-1.153,1.664,1.664,0,0,0-1.051-.353l-13.329-.03a1.669,1.669,0,0,0-1.053.349,1.373,1.373,0,0,0-.454,1.151l-.005,2.456a6.457,6.457,0,0,1-.431,2.479,4.292,4.292,0,0,1-1.157,1.65,4.675,4.675,0,0,1-1.705.923,7.007,7.007,0,0,1-2.08.3l-4.46-.011a7.076,7.076,0,0,1-2.08-.3,4.69,4.69,0,0,1-1.7-.93,4.345,4.345,0,0,1-1.149-1.655A6.489,6.489,0,0,1,0,910.683l.005-2.456a6.47,6.47,0,0,1,.431-2.479,4.338,4.338,0,0,1,1.157-1.65,4.707,4.707,0,0,1,1.705-.923,7.011,7.011,0,0,1,2.08-.3l2.456.005-.009,3.858-2.456-.005a1.67,1.67,0,0,0-1.053.349,1.373,1.373,0,0,0-.454,1.151l-.005,2.456a1.359,1.359,0,0,0,.449,1.178Z" transform="translate(0 -741.988)" fill="#1ed65b"/>
        <path id="Контур_192" data-name="Контур 192" d="M16.027,792.725l4.685-3.789L38.154,791.2l-.5,3.826-15.853-2.056-3.568,2.57,2.7,3.332,15.952,2.069-.5,3.826L18.855,802.49l-3.477-4.745-4.573,3.7-8.9-1.153.5-3.826,7.3.948,3.461-2.532-2.794-3.395-7.206-.934.5-3.826,8.9,1.153,3.464,4.845Z" transform="translate(-1.57 -646.536)" fill="#1ed65b"/>
        <path id="Контур_193" data-name="Контур 193" d="M30.7,682.464l-2.375-.622a1.666,1.666,0,0,0-1.107.073,1.371,1.371,0,0,0-.729,1l-.736,2.812a1.371,1.371,0,0,0,.144,1.23,1.664,1.664,0,0,0,.928.606l23.848,6.251a1.655,1.655,0,0,0,1.107-.073,1.372,1.372,0,0,0,.729-1l.738-2.812a1.372,1.372,0,0,0-.144-1.23,1.664,1.664,0,0,0-.928-.606l-14.349-3.76-.75,2.86-3.731-.978,1.729-6.592,17.79,4.662a7.575,7.575,0,0,1,1.983.83,5.128,5.128,0,0,1,1.509,1.354,4.525,4.525,0,0,1,.793,1.917,5.883,5.883,0,0,1-.168,2.52l-.736,2.812a6.487,6.487,0,0,1-1.041,2.292,4.316,4.316,0,0,1-1.534,1.308,4.674,4.674,0,0,1-1.884.465,7.021,7.021,0,0,1-2.088-.237L25.852,691.3a7.027,7.027,0,0,1-1.935-.818,4.679,4.679,0,0,1-1.413-1.329,4.309,4.309,0,0,1-.695-1.892,6.49,6.49,0,0,1,.217-2.507l.736-2.812a6.5,6.5,0,0,1,1.041-2.292,4.341,4.341,0,0,1,1.534-1.306,4.673,4.673,0,0,1,1.884-.465,7.021,7.021,0,0,1,2.088.237l2.375.622-.978,3.731Z" transform="translate(-17.887 -557.073)" fill="#1ed65b"/>
        <path id="Контур_194" data-name="Контур 194" d="M84.333,586.163l-1.595,4-11.41-1.144-.834,2.1L80.737,595.2l-1.427,3.585L47,585.917l2.707-6.8a6.494,6.494,0,0,1,1.313-2.147,4.563,4.563,0,0,1,1.691-1.133,4.487,4.487,0,0,1,1.935-.255,7.034,7.034,0,0,1,2.044.49L68.8,580.893a5.515,5.515,0,0,1,2.734,2,5,5,0,0,1,.791,2.687l12.014.576ZM55.243,579.7a1.761,1.761,0,0,0-1.1-.087,1.362,1.362,0,0,0-.855.927l-1.279,3.213,14.9,5.93,1.279-3.213a1.725,1.725,0,0,0,.1-1.121,1.4,1.4,0,0,0-.937-.83L55.242,579.7Z" transform="translate(-38.625 -473.003)" fill="#1ed65b"/>
        <path id="Контур_195" data-name="Контур 195" d="M104.912,470.6a5.1,5.1,0,0,1,3.976.723l11.378,6.244a7.008,7.008,0,0,1,1.679,1.263,4.7,4.7,0,0,1,1.048,1.632,4.322,4.322,0,0,1,.216,2,6.467,6.467,0,0,1-.82,2.379l-1.447,2.636a6.48,6.48,0,0,1-1.566,1.969,4.308,4.308,0,0,1-1.805.9,4.679,4.679,0,0,1-1.939-.007,6.968,6.968,0,0,1-1.967-.738l-8.347-4.58,1.857-3.382,8.347,4.58a1.749,1.749,0,0,0,1.08.221,1.361,1.361,0,0,0,.962-.816l1.447-2.636a1.372,1.372,0,0,0,.159-1.228,1.677,1.677,0,0,0-.754-.814L107.036,474.7a1.372,1.372,0,0,0-1.228-.159,1.677,1.677,0,0,0-.814.754l-1.614,2.944L100,476.381l-3.416-7.418-.57-.314L91.262,477.3l-3.382-1.857,6.6-12.037,5.1,2.8,2.511,6.465a5.512,5.512,0,0,1,2.826-2.08Z" transform="translate(-72.22 -380.831)" fill="#1ed65b"/>
        <path id="Контур_196" data-name="Контур 196" d="M150.73,376.762l3.142,2.24-4.48,6.283,5.834,4.159,3.375-4.733,3.183,2.269-3.373,4.733,13.016,9.279,4.48-6.283,3.142,2.24-6.72,9.425L144.01,386.185l6.72-9.425Z" transform="translate(-118.348 -309.622)" fill="#1ed65b"/>
        <path id="Контур_197" data-name="Контур 197" d="M229.455,323.047l-25.725-23.4,2.6-2.855,4.337,3.945,8.256-.214-8.748-7.958,2.6-2.855,25.725,23.4-2.6,2.855-13.27-12.071-8.106.348,17.533,15.949-2.6,2.855Z" transform="translate(-167.426 -238.084)" fill="#1ed65b"/>
        <path id="Контур_198" data-name="Контур 198" d="M297.736,222.263l6.016.337,11.41,13.384-2.937,2.5-10.369-12.166-4.368-.49-.235,4.282,10.435,12.242-2.937,2.5L293.276,231.4l.608-5.852-5.875-.326-5.818-6.827,2.937-2.5,4.779,5.606,4.266.447.208-4.391-4.713-5.53,2.937-2.5,5.818,6.827-.684,5.918Z" transform="translate(-231.904 -172.184)" fill="#1ed65b"/>
        <path id="Контур_199" data-name="Контур 199" d="M391.987,156.935l-1.344-2.055a1.663,1.663,0,0,0-.87-.688,1.375,1.375,0,0,0-1.212.253l-2.432,1.591a1.37,1.37,0,0,0-.718,1.009,1.66,1.66,0,0,0,.282,1.073l13.493,20.634a1.675,1.675,0,0,0,.87.69,1.369,1.369,0,0,0,1.212-.253L403.7,177.6a1.375,1.375,0,0,0,.718-1.009,1.67,1.67,0,0,0-.282-1.073L396.019,163.1l-2.475,1.618-2.112-3.229,5.7-3.73L407.2,173.153a7.511,7.511,0,0,1,.914,1.946,5.148,5.148,0,0,1,.212,2.017,4.516,4.516,0,0,1-.7,1.953,5.861,5.861,0,0,1-1.816,1.755l-2.432,1.591a6.457,6.457,0,0,1-2.309,1,4.33,4.33,0,0,1-2.015-.059,4.7,4.7,0,0,1-1.709-.918,7.043,7.043,0,0,1-1.39-1.575l-13.493-20.634a6.975,6.975,0,0,1-.886-1.9,4.694,4.694,0,0,1-.157-1.933,4.311,4.311,0,0,1,.754-1.869,6.488,6.488,0,0,1,1.843-1.714l2.432-1.591a6.522,6.522,0,0,1,2.309-1,4.354,4.354,0,0,1,2.015.059,4.676,4.676,0,0,1,1.709.92,7.044,7.044,0,0,1,1.39,1.575l1.344,2.055-3.229,2.112Z" transform="translate(-313.421 -123.375)" fill="#1ed65b"/>
        <path id="Контур_200" data-name="Контур 200" d="M508.332,115.2l-6.191,2.969,2.16,6.356-3.478,1.67L489.35,93.125l7.409-3.555,18.656,29.622-3.525,1.691-3.56-5.685Zm-1.878-2.988L495.313,94.545l-1.174.563,6.85,19.723,5.467-2.623Z" transform="translate(-402.149 -73.609)" fill="#1ed65b"/>
        <path id="Контур_201" data-name="Контур 201" d="M613.782,23.882l9.425,33.475L619.494,58.4l-4.074-14.47-3.931-15.812-1.351.38,2.589,23.062L606.553,53.3l-9.824-21.024-1.351.38,4.9,15.541,4.074,14.47-3.714,1.046L591.21,30.238l7.573-2.133,9.6,21.141.675-.191-2.844-23.043,7.573-2.133Z" transform="translate(-485.857 -19.624)" fill="#1ed65b"/>
        <path id="Контур_202" data-name="Контур 202" d="M773.148,6.81l.474,3.829-7.659.948.88,7.112,5.768-.715.479,3.879-5.768.713,1.964,15.865,7.659-.948.474,3.829-11.488,1.422L761.66,8.232,773.148,6.81Z" transform="translate(-625.934 -5.596)" fill="#1ed65b"/>
        <path id="Контур_203" data-name="Контур 203" d="M867.928,4.333a1.755,1.755,0,0,0-.319,1.055l.03,4.46a1.72,1.72,0,0,0,.333,1.075,1.4,1.4,0,0,0,1.18.419l2.456-.016a6.456,6.456,0,0,1,2.484.41,4.333,4.333,0,0,1,1.661,1.142,4.693,4.693,0,0,1,.939,1.7,7.047,7.047,0,0,1,.315,2.078l.091,13.329a7.024,7.024,0,0,1-.287,2.081,4.673,4.673,0,0,1-.916,1.711,4.343,4.343,0,0,1-1.646,1.164,6.446,6.446,0,0,1-2.477.442l-2.456.016a6.44,6.44,0,0,1-2.482-.41,4.3,4.3,0,0,1-1.661-1.142,4.7,4.7,0,0,1-.939-1.7,7.037,7.037,0,0,1-.315-2.078L863.849,19.7l3.858-.027.069,10.373a1.743,1.743,0,0,0,.333,1.05,1.361,1.361,0,0,0,1.18.444l2.456-.016a1.369,1.369,0,0,0,1.149-.46A1.673,1.673,0,0,0,873.238,30l-.091-13.329a1.663,1.663,0,0,0-.358-1.05,1.37,1.37,0,0,0-1.155-.444l-2.456.016a6.456,6.456,0,0,1-2.484-.41,4.3,4.3,0,0,1-1.661-1.14,4.69,4.69,0,0,1-.939-1.7,7.046,7.046,0,0,1-.315-2.078l-.03-4.46a7.024,7.024,0,0,1,.287-2.081,4.665,4.665,0,0,1,.916-1.709A4.316,4.316,0,0,1,866.6.457a6.44,6.44,0,0,1,2.477-.442L871.531,0a6.455,6.455,0,0,1,2.484.41,4.334,4.334,0,0,1,1.661,1.142,4.686,4.686,0,0,1,.939,1.7,7.047,7.047,0,0,1,.315,2.078l.016,2.456-3.858.027-.016-2.456a1.663,1.663,0,0,0-.358-1.05,1.372,1.372,0,0,0-1.155-.444l-2.456.016a1.358,1.358,0,0,0-1.174.46Z" transform="translate(-709.83 0.001)" fill="#1ed65b"/>
      </g>
      <g id="Сгруппировать_14" data-name="Сгруппировать 14" transform="translate(43.79 43.949)">
        <path id="Контур_204" data-name="Контур 204" d="M679.6,287.768l3.992,1.891,4.05,12.239-2.685.889-3.682-11.123-2.83-1.54-1.342,2.842,3.7,11.193-2.685.889-4.074-12.308,2.03-3.8-3.9-1.843-2.065-6.241,2.685-.889,1.7,5.125,2.773,1.481,1.354-2.924-1.673-5.056,2.685-.889,2.065,6.24-2.1,3.828Z" transform="translate(-594.488 -272.163)" fill="#1ed65b"/>
        <path id="Контур_205" data-name="Контур 205" d="M763.023,265.535l-.344-1.766a1.233,1.233,0,0,0-.4-.707,1.011,1.011,0,0,0-.893-.164l-2.09.406a1,1,0,0,0-.766.486,1.222,1.222,0,0,0-.105.805l3.452,17.736a1.222,1.222,0,0,0,.4.707,1.006,1.006,0,0,0,.893.164l2.09-.406a1,1,0,0,0,.766-.486,1.222,1.222,0,0,0,.105-.805l-2.078-10.671-2.128.413-.54-2.776,4.9-.955,2.575,13.231a5.515,5.515,0,0,1,.082,1.573,3.792,3.792,0,0,1-.413,1.427,3.326,3.326,0,0,1-1.014,1.133,4.3,4.3,0,0,1-1.718.69l-2.09.406a4.742,4.742,0,0,1-1.844.041,3.156,3.156,0,0,1-1.351-.6,3.43,3.43,0,0,1-.905-1.1,5.164,5.164,0,0,1-.508-1.454l-3.452-17.736a5.119,5.119,0,0,1-.075-1.538,3.461,3.461,0,0,1,.428-1.356,3.175,3.175,0,0,1,1.028-1.06,4.753,4.753,0,0,1,1.725-.654l2.09-.406a4.776,4.776,0,0,1,1.844-.041,3.187,3.187,0,0,1,1.351.6,3.432,3.432,0,0,1,.905,1.1,5.169,5.169,0,0,1,.508,1.454l.344,1.766-2.776.54Z" transform="translate(-664.7 -257.625)" fill="#1ed65b"/>
        <path id="Контур_206" data-name="Контур 206" d="M847.488,275.248l-3.151.221-2.873-7.9-1.648.116.565,8.06-2.821.2-1.78-25.425,5.349-.374a4.731,4.731,0,0,1,1.835.185,3.35,3.35,0,0,1,1.287.757,3.293,3.293,0,0,1,.784,1.2,5.15,5.15,0,0,1,.326,1.506l.666,9.526a4.051,4.051,0,0,1-.454,2.443,3.682,3.682,0,0,1-1.524,1.377l3.439,8.117ZM842.5,253.985a1.285,1.285,0,0,0-.292-.752,1,1,0,0,0-.884-.269l-2.529.176.82,11.724,2.529-.176a1.255,1.255,0,0,0,.772-.294,1.028,1.028,0,0,0,.251-.882Z" transform="translate(-730.636 -249.503)" fill="#1ed65b"/>
        <path id="Контур_207" data-name="Контур 207" d="M919.889,256.34a3.739,3.739,0,0,1,.786,2.855l-.5,9.5a5.14,5.14,0,0,1-.3,1.511,3.408,3.408,0,0,1-.745,1.21,3.153,3.153,0,0,1-1.255.779,4.737,4.737,0,0,1-1.832.216l-2.2-.118a4.709,4.709,0,0,1-1.8-.408,3.159,3.159,0,0,1-1.165-.907,3.456,3.456,0,0,1-.613-1.283,5.166,5.166,0,0,1-.139-1.534l.369-6.968,2.824.15-.369,6.968a1.271,1.271,0,0,0,.2.782,1,1,0,0,0,.845.376l2.2.116a1.006,1.006,0,0,0,.861-.285,1.228,1.228,0,0,0,.3-.757l.5-9.5a1.006,1.006,0,0,0-.285-.861,1.228,1.228,0,0,0-.757-.3l-2.457-.13.15-2.824,3.812-4.615.025-.476-7.224-.383.15-2.824,10.049.533-.226,4.254-3.469,3.714a4.029,4.029,0,0,1,2.272,1.2Z" transform="translate(-791.724 -246.63)" fill="#1ed65b"/>
        <path id="Контур_208" data-name="Контур 208" d="M989.764,252.948l-.479,2.787-5.574-.959-.891,5.175,4.2.723-.486,2.823-4.2-.722-1.987,11.545,5.574.959-.479,2.787-8.361-1.438L981.4,251.51Z" transform="translate(-846.757 -250.64)" fill="#1ed65b"/>
        <path id="Контур_209" data-name="Контур 209" d="M1035.11,288.589l7.269-24.429,2.71.807-1.226,4.118,2.767,5.383,2.472-8.308,2.71.807-7.269,24.429-2.711-.807,3.749-12.6-2.808-5.243L1037.82,289.4Z" transform="translate(-894.446 -261.036)" fill="#1ed65b"/>
        <path id="Контур_210" data-name="Контур 210" d="M1112.633,300.056l1.691,4.079-5.21,11.791-2.588-1.142,4.735-10.717-1.066-3.04-2.9,1.206-4.765,10.783-2.588-1.142,5.239-11.859,4.057-1.459-1.654-3.983,2.657-6.012,2.588,1.142-2.181,4.938,1.062,2.958,2.965-1.26,2.153-4.872,2.587,1.142-2.657,6.012-4.125,1.429Z" transform="translate(-947.723 -281.088)" fill="#1ed65b"/>
        <path id="Контур_211" data-name="Контур 211" d="M1184.8,337.172l.93-1.541a1.229,1.229,0,0,0,.178-.793,1.01,1.01,0,0,0-.552-.72l-1.823-1.1a1,1,0,0,0-.895-.153,1.221,1.221,0,0,0-.618.527l-9.336,15.471a1.217,1.217,0,0,0-.178.793,1.008,1.008,0,0,0,.552.72l1.823,1.1a1.009,1.009,0,0,0,.894.153,1.219,1.219,0,0,0,.618-.527l5.617-9.307-1.855-1.119,1.461-2.422,4.277,2.58-6.964,11.54a5.5,5.5,0,0,1-.994,1.222,3.737,3.737,0,0,1-1.265.781,3.327,3.327,0,0,1-1.513.16,4.336,4.336,0,0,1-1.738-.64l-1.823-1.1a4.766,4.766,0,0,1-1.4-1.206,3.161,3.161,0,0,1-.6-1.349,3.435,3.435,0,0,1,.064-1.42,5.178,5.178,0,0,1,.6-1.418l9.336-15.471a5.113,5.113,0,0,1,.977-1.19,3.428,3.428,0,0,1,1.226-.718,3.153,3.153,0,0,1,1.474-.1,4.757,4.757,0,0,1,1.718.672l1.823,1.1a4.767,4.767,0,0,1,1.4,1.206,3.166,3.166,0,0,1,.6,1.349,3.431,3.431,0,0,1-.064,1.42,5.154,5.154,0,0,1-.6,1.418l-.93,1.541-2.422-1.461Z" transform="translate(-1004.929 -315.047)" fill="#1ed65b"/>
        <path id="Контур_212" data-name="Контур 212" d="M1230.128,397.294l-3.929-3.143-3.511,3.446-2.208-1.768,18.191-18.089,4.7,3.764-13.63,21.737-2.236-1.789Zm1.377-2.192,8.124-12.973-.745-.6-10.847,10.794,3.47,2.776Z" transform="translate(-1046.783 -354.376)" fill="#1ed65b"/>
        <path id="Контур_213" data-name="Контур 213" d="M1311.209,441.986l-19.1,16.872-1.871-2.121,8.26-7.294,9.19-7.625-.681-.772-14.4,9.045-3.111-3.523,10.758-13.174-.681-.772-8.7,8.176-8.26,7.294-1.871-2.121,19.1-16.872,3.817,4.321-10.908,13.06.34.385,14.309-9.208,3.817,4.321Z" transform="translate(-1096.297 -396.584)" fill="#1ed65b"/>
        <path id="Контур_214" data-name="Контур 214" d="M1377.462,534.512l-2.377,1.533-3.063-4.754-4.416,2.844,2.308,3.582-2.407,1.552-2.308-3.582-9.849,6.346,3.063,4.754-2.377,1.531-4.6-7.131,21.427-13.805Z" transform="translate(-1154.406 -477.351)" fill="#1ed65b"/>
        <path id="Контур_215" data-name="Контур 215" d="M1410.4,599.81a1.29,1.29,0,0,0-.8.125l-2.935,1.438a1.261,1.261,0,0,0-.6.561,1.024,1.024,0,0,0,.1.912l.791,1.616a4.79,4.79,0,0,1,.52,1.77,3.179,3.179,0,0,1-.224,1.459,3.432,3.432,0,0,1-.822,1.16,5.126,5.126,0,0,1-1.272.868l-8.773,4.3a5.182,5.182,0,0,1-1.465.472,3.416,3.416,0,0,1-1.42-.061,3.184,3.184,0,0,1-1.292-.716,4.731,4.731,0,0,1-1.08-1.5l-.791-1.616a4.789,4.789,0,0,1-.52-1.77,3.17,3.17,0,0,1,.225-1.459,3.43,3.43,0,0,1,.822-1.16,5.177,5.177,0,0,1,1.272-.87l6.827-3.345,1.244,2.539-6.827,3.345a1.279,1.279,0,0,0-.588.554,1,1,0,0,0,.084.921l.791,1.616a1.009,1.009,0,0,0,.668.613,1.216,1.216,0,0,0,.806-.109l8.773-4.3a1.215,1.215,0,0,0,.579-.57,1,1,0,0,0-.075-.9l-.791-1.616a4.759,4.759,0,0,1-.52-1.77,3.172,3.172,0,0,1,.225-1.459,3.411,3.411,0,0,1,.823-1.16,5.119,5.119,0,0,1,1.272-.868l2.935-1.438a5.163,5.163,0,0,1,1.465-.472,3.414,3.414,0,0,1,1.42.061,3.2,3.2,0,0,1,1.292.716,4.71,4.71,0,0,1,1.08,1.5l.791,1.616a4.792,4.792,0,0,1,.52,1.769,3.175,3.175,0,0,1-.225,1.46,3.429,3.429,0,0,1-.821,1.16,5.179,5.179,0,0,1-1.272.87l-1.616.791-1.244-2.539,1.616-.791a1.224,1.224,0,0,0,.579-.57,1,1,0,0,0-.075-.9l-.791-1.616a.992.992,0,0,0-.677-.629Z" transform="translate(-1185.935 -534.463)" fill="#1ed65b"/>
        <path id="Контур_216" data-name="Контур 216" d="M1431.252,675.178l-1.853,4.01-12.2,4.164-.914-2.677,11.087-3.785,1.513-2.844-2.855-1.315-11.157,3.808-.914-2.677,12.269-4.188,3.824,1.994,1.807-3.915,6.221-2.124.914,2.677-5.109,1.745-1.456,2.787,2.937,1.326,5.04-1.72.914,2.677-6.221,2.124-3.847-2.063Z" transform="translate(-1205.785 -590.965)" fill="#1ed65b"/>
        <path id="Контур_217" data-name="Контур 217" d="M1460.046,758.422l1.763-.36a1.218,1.218,0,0,0,.7-.406,1,1,0,0,0,.155-.895l-.426-2.087a1,1,0,0,0-.494-.761,1.214,1.214,0,0,0-.807-.1l-17.7,3.617a1.217,1.217,0,0,0-.7.406,1.006,1.006,0,0,0-.155.895l.426,2.087a1,1,0,0,0,.494.761,1.226,1.226,0,0,0,.807.1l10.651-2.178-.433-2.122,2.771-.567,1,4.893-13.206,2.7a5.46,5.46,0,0,1-1.573.1,3.766,3.766,0,0,1-1.431-.4,3.315,3.315,0,0,1-1.142-1,4.319,4.319,0,0,1-.706-1.711l-.426-2.087a4.739,4.739,0,0,1-.059-1.844,3.161,3.161,0,0,1,.584-1.356,3.453,3.453,0,0,1,1.087-.916,5.15,5.15,0,0,1,1.449-.52l17.7-3.617a5.2,5.2,0,0,1,1.538-.089,3.447,3.447,0,0,1,1.36.415,3.181,3.181,0,0,1,1.071,1.018,4.739,4.739,0,0,1,.67,1.718l.426,2.087a4.774,4.774,0,0,1,.059,1.844,3.184,3.184,0,0,1-.584,1.356,3.454,3.454,0,0,1-1.087.916,5.151,5.151,0,0,1-1.449.52l-1.762.36-.567-2.771Z" transform="translate(-1226.761 -661.069)" fill="#1ed65b"/>
        <path id="Контур_218" data-name="Контур 218" d="M1452.146,842.819l-.249-3.149,7.871-2.946-.13-1.648-8.055.638-.223-2.819,25.408-2.015.424,5.346a4.768,4.768,0,0,1-.167,1.837,3.35,3.35,0,0,1-.745,1.294,3.314,3.314,0,0,1-1.191.795,5.193,5.193,0,0,1-1.5.34l-9.519.756a4.041,4.041,0,0,1-2.447-.431,3.662,3.662,0,0,1-1.392-1.511l-8.085,3.514Zm21.216-5.182a1.282,1.282,0,0,0,.75-.3,1,1,0,0,0,.262-.886l-.2-2.527-11.717.928.2,2.527a1.251,1.251,0,0,0,.3.768,1.027,1.027,0,0,0,.885.242l9.519-.756Z" transform="translate(-1236.521 -726.768)" fill="#1ed65b"/>
        <path id="Контур_219" data-name="Контур 219" d="M1472.036,915.941a3.744,3.744,0,0,1-2.848.813l-9.5-.415a5.153,5.153,0,0,1-1.513-.287,3.4,3.4,0,0,1-1.217-.734,3.152,3.152,0,0,1-.791-1.247,4.737,4.737,0,0,1-.233-1.83l.1-2.2a4.7,4.7,0,0,1,.392-1.8,3.185,3.185,0,0,1,.9-1.174,3.409,3.409,0,0,1,1.278-.624,5.146,5.146,0,0,1,1.532-.153l6.971.3-.123,2.824-6.971-.3a1.278,1.278,0,0,0-.78.2.993.993,0,0,0-.367.848l-.1,2.2a1,1,0,0,0,.294.859,1.22,1.22,0,0,0,.759.29l9.5.415a1,1,0,0,0,.859-.294,1.221,1.221,0,0,0,.29-.759l.107-2.459,2.824.123,4.651,3.769.478.021.315-7.228,2.825.123-.44,10.054-4.255-.185-3.746-3.436a4.025,4.025,0,0,1-1.185,2.283Z" transform="translate(-1240.271 -788.731)" fill="#1ed65b"/>
        <path id="Контур_220" data-name="Контур 220" d="M1472.626,985.925l-2.791-.454.907-5.583-5.184-.843-.684,4.205-2.828-.46.684-4.205-11.563-1.88-.907,5.583-2.791-.454,1.362-8.374,25.158,4.09-1.362,8.373Z" transform="translate(-1233.324 -843.94)" fill="#1ed65b"/>
        <path id="Контур_221" data-name="Контур 221" d="M1434.327,1031.59l24.5,7.042-.782,2.718-4.129-1.187-5.357,2.816,8.331,2.4-.781,2.717-24.495-7.042.781-2.718,12.636,3.633,5.216-2.856-16.7-4.8.78-2.718Z" transform="translate(-1220.29 -891.711)" fill="#1ed65b"/>
        <path id="Контур_222" data-name="Контур 222" d="M1422.944,1109.171l-4.065,1.729-11.84-5.1,1.119-2.6,10.76,4.635,3.031-1.094-1.233-2.89-10.828-4.665,1.119-2.6,11.907,5.13,1.5,4.043,3.966-1.689,6.037,2.6-1.119,2.6-4.959-2.137-2.949,1.089,1.287,2.955,4.891,2.106-1.119,2.6-6.037-2.6-1.468-4.111Z" transform="translate(-1200.098 -945.129)" fill="#1ed65b"/>
        <path id="Контур_223" data-name="Контур 223" d="M1398.772,1181.516l1.55.916a1.218,1.218,0,0,0,.795.171,1.008,1.008,0,0,0,.715-.559l1.083-1.834a1.006,1.006,0,0,0,.146-.895,1.223,1.223,0,0,0-.533-.613l-15.557-9.191a1.217,1.217,0,0,0-.795-.171,1,1,0,0,0-.714.559l-1.084,1.834a1,1,0,0,0-.144.9,1.22,1.22,0,0,0,.533.613l9.359,5.529,1.1-1.866,2.434,1.438-2.541,4.3-11.6-6.855a5.537,5.537,0,0,1-1.231-.984,3.754,3.754,0,0,1-.793-1.258,3.316,3.316,0,0,1-.175-1.511,4.317,4.317,0,0,1,.624-1.743l1.083-1.834a4.743,4.743,0,0,1,1.194-1.406,3.156,3.156,0,0,1,1.344-.613,3.426,3.426,0,0,1,1.42.05,5.106,5.106,0,0,1,1.424.586l15.557,9.191a5.16,5.16,0,0,1,1.2.964,3.406,3.406,0,0,1,.729,1.221,3.168,3.168,0,0,1,.11,1.474,4.737,4.737,0,0,1-.656,1.723l-1.083,1.834a4.745,4.745,0,0,1-1.194,1.406,3.182,3.182,0,0,1-1.344.615,3.457,3.457,0,0,1-1.42-.05,5.112,5.112,0,0,1-1.424-.586l-1.55-.916,1.438-2.434Z" transform="translate(-1178.943 -1002.489)" fill="#1ed65b"/>
        <path id="Контур_224" data-name="Контур 224" d="M1335.412,1227.36l3.108-3.958-3.48-3.478,1.746-2.224,18.256,18.021-3.719,4.738-21.863-13.427,1.77-2.254Zm2.2,1.356,13.048,8,.59-.75-10.893-10.747-2.744,3.5Z" transform="translate(-1136.343 -1044.657)" fill="#1ed65b"/>
        <path id="Контур_225" data-name="Контур 225" d="M1271.956,1308.755l-17.046-18.948,2.1-1.891,7.368,8.19,7.711,9.118.764-.688-9.177-14.32,3.494-3.143,13.274,10.635.765-.688-8.256-8.628-7.368-8.19,2.1-1.892,17.046,18.948-4.286,3.856-13.162-10.785-.383.344,9.339,14.224-4.287,3.856Z" transform="translate(-1075.078 -1094.466)" fill="#1ed65b"/>
        <path id="Контур_226" data-name="Контур 226" d="M1220.423,1375.768l-1.554-2.363,4.726-3.106-2.885-4.389-3.56,2.34-1.573-2.393,3.56-2.34-6.437-9.79-4.726,3.106-1.554-2.363,7.089-4.66,14,21.3-7.089,4.66Z" transform="translate(-1035.229 -1153.225)" fill="#1ed65b"/>
        <path id="Контур_227" data-name="Контур 227" d="M1170.567,1409.173a1.272,1.272,0,0,0-.132-.8l-1.467-2.922a1.257,1.257,0,0,0-.567-.6,1.021,1.021,0,0,0-.91.109l-1.609.807a4.731,4.731,0,0,1-1.764.536,3.17,3.17,0,0,1-1.463-.212,3.439,3.439,0,0,1-1.167-.811,5.148,5.148,0,0,1-.88-1.264l-4.38-8.732a5.168,5.168,0,0,1-.487-1.461,3.421,3.421,0,0,1,.048-1.42,3.174,3.174,0,0,1,.7-1.3,4.779,4.779,0,0,1,1.484-1.094l1.609-.807a4.74,4.74,0,0,1,1.764-.536,3.152,3.152,0,0,1,1.463.212,3.444,3.444,0,0,1,1.167.811,5.146,5.146,0,0,1,.88,1.263l3.409,6.795-2.527,1.269-3.409-6.795a1.286,1.286,0,0,0-.56-.583.993.993,0,0,0-.92.091l-1.609.807a1.01,1.01,0,0,0-.608.674,1.228,1.228,0,0,0,.116.806l4.38,8.732a1.225,1.225,0,0,0,.576.574,1,1,0,0,0,.9-.084l1.609-.807a4.731,4.731,0,0,1,1.764-.536,3.159,3.159,0,0,1,1.461.212,3.443,3.443,0,0,1,1.167.811,5.2,5.2,0,0,1,.88,1.264l1.467,2.92a5.172,5.172,0,0,1,.486,1.461,3.419,3.419,0,0,1-.048,1.42,3.178,3.178,0,0,1-.7,1.3,4.764,4.764,0,0,1-1.484,1.094l-1.609.807a4.736,4.736,0,0,1-1.764.536,3.176,3.176,0,0,1-1.463-.212,3.446,3.446,0,0,1-1.167-.811,5.138,5.138,0,0,1-.88-1.263l-.807-1.609,2.527-1.269.807,1.609a1.224,1.224,0,0,0,.576.574,1,1,0,0,0,.9-.084l1.609-.807a1,1,0,0,0,.624-.682Z" transform="translate(-993.537 -1185.153)" fill="#1ed65b"/>
        <path id="Контур_228" data-name="Контур 228" d="M1095.064,1430.6l-4.026-1.816-4.279-12.16,2.668-.939,3.888,11.052,2.858,1.486,1.288-2.867-3.913-11.121,2.668-.939,4.3,12.23-1.958,3.842,3.933,1.77,2.181,6.2-2.668.939-1.793-5.093-2.8-1.429-1.3,2.949,1.768,5.023-2.668.939-2.183-6.2,2.026-3.867Z" transform="translate(-936.892 -1205.401)" fill="#1ed65b"/>
        <path id="Контур_229" data-name="Контур 229" d="M1031.188,1460.16l.378,1.761a1.219,1.219,0,0,0,.413.7,1,1,0,0,0,.895.146l2.083-.445a1.006,1.006,0,0,0,.757-.5,1.215,1.215,0,0,0,.089-.807l-3.783-17.668a1.229,1.229,0,0,0-.413-.7,1,1,0,0,0-.895-.146l-2.083.445a1.009,1.009,0,0,0-.757.5,1.214,1.214,0,0,0-.089.807l2.276,10.63,2.119-.454.592,2.766-4.884,1.046-2.823-13.18a5.513,5.513,0,0,1-.11-1.572,3.778,3.778,0,0,1,.387-1.435,3.3,3.3,0,0,1,.992-1.151,4.277,4.277,0,0,1,1.705-.722l2.083-.445a4.764,4.764,0,0,1,1.843-.075,3.151,3.151,0,0,1,1.361.572,3.45,3.45,0,0,1,.927,1.078,5.137,5.137,0,0,1,.535,1.443l3.783,17.668a5.134,5.134,0,0,1,.1,1.536,3.428,3.428,0,0,1-.4,1.363,3.175,3.175,0,0,1-1.009,1.08,4.763,4.763,0,0,1-1.712.686l-2.083.446a4.761,4.761,0,0,1-1.843.075,3.16,3.16,0,0,1-1.361-.572,3.471,3.471,0,0,1-.927-1.078,5.128,5.128,0,0,1-.535-1.443l-.376-1.761,2.766-.592Z" transform="translate(-886.084 -1227.016)" fill="#1ed65b"/>
        <path id="Контур_230" data-name="Контур 230" d="M954.15,1452.79l3.147-.28,3.019,7.844,1.647-.146-.713-8.049,2.817-.249,2.251,25.388-5.341.474a4.771,4.771,0,0,1-1.839-.15,3.372,3.372,0,0,1-1.3-.732,3.326,3.326,0,0,1-.805-1.182,5.165,5.165,0,0,1-.355-1.5l-.843-9.512a4.046,4.046,0,0,1,.41-2.452,3.649,3.649,0,0,1,1.5-1.4l-3.591-8.051Zm5.38,21.166a1.285,1.285,0,0,0,.307.747,1,1,0,0,0,.889.253l2.525-.225-1.039-11.706-2.525.223a1.261,1.261,0,0,0-.766.308,1.032,1.032,0,0,0-.235.887l.843,9.512Z" transform="translate(-827.913 -1237.131)" fill="#1ed65b"/>
        <path id="Контур_231" data-name="Контур 231" d="M886.595,1473.558a3.736,3.736,0,0,1-.839-2.84l.328-9.507a5.208,5.208,0,0,1,.273-1.515,3.438,3.438,0,0,1,.722-1.224,3.163,3.163,0,0,1,1.24-.8,4.736,4.736,0,0,1,1.828-.249l2.2.077a4.776,4.776,0,0,1,1.807.374,3.138,3.138,0,0,1,1.181.886,3.427,3.427,0,0,1,.636,1.271,5.135,5.135,0,0,1,.168,1.531l-.241,6.975-2.826-.1.241-6.974a1.279,1.279,0,0,0-.212-.779,1,1,0,0,0-.852-.36l-2.2-.077a1,1,0,0,0-.855.3,1.228,1.228,0,0,0-.283.763l-.328,9.507a1,1,0,0,0,.3.855,1.226,1.226,0,0,0,.763.283l2.459.086-.1,2.826-3.726,4.685-.016.478,7.231.25-.1,2.826-10.057-.346.146-4.257,3.4-3.778a4.029,4.029,0,0,1-2.293-1.164Z" transform="translate(-771.365 -1241.656)" fill="#1ed65b"/>
        <path id="Контур_232" data-name="Контур 232" d="M809.842,1474.866l.428-2.8,5.59.855.795-5.191-4.211-.645.433-2.832,4.211.645,1.773-11.581-5.59-.855.428-2.8,8.386,1.285-3.858,25.194-8.386-1.285Z" transform="translate(-709.318 -1235.291)" fill="#1ed65b"/>
        <path id="Контур_233" data-name="Контур 233" d="M745.2,1437.034l-6.816,24.559-2.725-.756,1.149-4.141-2.865-5.332-2.318,8.352-2.725-.756,6.816-24.561,2.725.756-3.516,12.67,2.9,5.189,4.646-16.738,2.725.756Z" transform="translate(-642.802 -1222.741)" fill="#1ed65b"/>
        <path id="Контур_234" data-name="Контур 234" d="M654.621,1426.393l-1.766-4.047,4.99-11.886,2.607,1.094-4.535,10.8,1.123,3.02,2.88-1.262,4.564-10.87,2.607,1.094-5.018,11.954-4.029,1.534,1.727,3.951-2.545,6.062-2.607-1.094,2.09-4.979-1.117-2.939-2.942,1.315-2.062,4.909-2.607-1.094,2.545-6.062,4.1-1.506Z" transform="translate(-576.301 -1203.068)" fill="#1ed65b"/>
        <path id="Контур_235" data-name="Контур 235" d="M582.494,1402.747l-.9,1.557a1.221,1.221,0,0,0-.164.8,1,1,0,0,0,.565.709l1.844,1.066a1,1,0,0,0,.9.137,1.227,1.227,0,0,0,.609-.54l9.045-15.642a1.221,1.221,0,0,0,.164-.8,1,1,0,0,0-.565-.709l-1.844-1.066a1,1,0,0,0-.9-.137,1.231,1.231,0,0,0-.609.538l-5.442,9.411,1.876,1.085-1.415,2.448-4.323-2.5,6.747-11.668a5.444,5.444,0,0,1,.973-1.24,3.732,3.732,0,0,1,1.249-.8,3.306,3.306,0,0,1,1.509-.189,4.316,4.316,0,0,1,1.748.608l1.844,1.066a4.77,4.77,0,0,1,1.417,1.18,3.153,3.153,0,0,1,.627,1.338,3.429,3.429,0,0,1-.037,1.422,5.171,5.171,0,0,1-.572,1.429l-9.045,15.642a5.166,5.166,0,0,1-.953,1.21,3.423,3.423,0,0,1-1.214.741,3.178,3.178,0,0,1-1.472.125,4.733,4.733,0,0,1-1.73-.64l-1.844-1.065a4.752,4.752,0,0,1-1.418-1.18,3.2,3.2,0,0,1-.627-1.338,3.42,3.42,0,0,1,.037-1.42,5.169,5.169,0,0,1,.572-1.429l.9-1.557,2.448,1.417Z" transform="translate(-519.185 -1182.298)" fill="#1ed65b"/>
        <path id="Контур_236" data-name="Контур 236" d="M519.57,1339.966l3.986,3.068,3.445-3.512,2.24,1.725-17.848,18.426L506.62,1356l13.221-21.988,2.27,1.748-2.543,4.208Zm-1.335,2.217-7.878,13.123.757.583,10.644-10.995-3.521-2.71Z" transform="translate(-460.132 -1140.241)" fill="#1ed65b"/>
        <path id="Контур_237" data-name="Контур 237" d="M401.922,1277.373l18.789-17.223,1.91,2.085-8.122,7.445-9.047,7.794.695.757,14.235-9.311,3.177,3.466-10.51,13.372.7.757,8.55-8.336,8.122-7.445,1.91,2.085-18.789,17.223-3.9-4.25,10.662-13.262-.348-.38-14.136,9.471-3.9-4.25Z" transform="translate(-374.089 -1079.542)" fill="#1ed65b"/>
        <path id="Контур_238" data-name="Контур 238" d="M355.08,1226.261l2.349-1.575,3.151,4.7,4.361-2.926-2.374-3.537,2.379-1.6,2.374,3.537,9.73-6.528-3.151-4.7,2.349-1.575,4.728,7.046-21.166,14.2-4.726-7.044Z" transform="translate(-335.596 -1040.022)" fill="#1ed65b"/>
        <path id="Контур_239" data-name="Контур 239" d="M325.114,1176.567a1.281,1.281,0,0,0,.795-.139l2.908-1.493a1.263,1.263,0,0,0,.593-.574,1.026,1.026,0,0,0-.116-.911l-.821-1.6a4.745,4.745,0,0,1-.552-1.76,3.184,3.184,0,0,1,.2-1.465,3.454,3.454,0,0,1,.8-1.174,5.174,5.174,0,0,1,1.254-.893l8.691-4.462a5.153,5.153,0,0,1,1.456-.5,3.46,3.46,0,0,1,1.422.034,3.143,3.143,0,0,1,1.3.693,4.743,4.743,0,0,1,1.108,1.475l.821,1.6a4.757,4.757,0,0,1,.552,1.761,3.149,3.149,0,0,1-.2,1.463,3.436,3.436,0,0,1-.8,1.174,5.146,5.146,0,0,1-1.254.893l-6.763,3.471-1.292-2.516,6.763-3.471a1.275,1.275,0,0,0,.577-.565,1,1,0,0,0-.1-.92l-.822-1.6a1.008,1.008,0,0,0-.679-.6,1.224,1.224,0,0,0-.8.123l-8.691,4.462a1.215,1.215,0,0,0-.568.581,1.006,1.006,0,0,0,.091.9l.822,1.6a4.723,4.723,0,0,1,.552,1.761,3.148,3.148,0,0,1-.2,1.463,3.428,3.428,0,0,1-.8,1.174,5.16,5.16,0,0,1-1.255.893l-2.908,1.493a5.158,5.158,0,0,1-1.456.5,3.433,3.433,0,0,1-1.422-.034,3.175,3.175,0,0,1-1.3-.692,4.744,4.744,0,0,1-1.108-1.476l-.822-1.6a4.746,4.746,0,0,1-.552-1.761,3.162,3.162,0,0,1,.2-1.465,3.454,3.454,0,0,1,.8-1.174,5.177,5.177,0,0,1,1.254-.893l1.6-.821,1.292,2.516-1.6.822a1.215,1.215,0,0,0-.568.581,1,1,0,0,0,.091.9l.821,1.6a1,1,0,0,0,.688.617Z" transform="translate(-307.198 -998.502)" fill="#1ed65b"/>
        <path id="Контур_240" data-name="Контур 240" d="M292.246,1101.236l1.777-4.043,12.119-4.393.964,2.659-11.014,3.992-1.459,2.872,2.88,1.262,11.084-4.017.964,2.659-12.189,4.418-3.86-1.921-1.734,3.949-6.18,2.24-.964-2.659,5.075-1.839,1.4-2.814-2.96-1.271-5.007,1.814-.964-2.659,6.18-2.24,3.885,1.99Z" transform="translate(-275.686 -942.014)" fill="#1ed65b"/>
        <path id="Контур_241" data-name="Контур 241" d="M268.063,1037.68l-1.755.394a1.23,1.23,0,0,0-.7.419,1,1,0,0,0-.137.9l.465,2.08a1,1,0,0,0,.508.752,1.219,1.219,0,0,0,.809.082l17.633-3.949a1.22,1.22,0,0,0,.7-.419,1,1,0,0,0,.137-.9l-.465-2.08a1.006,1.006,0,0,0-.508-.752,1.231,1.231,0,0,0-.809-.082l-10.608,2.375.474,2.115-2.76.618-1.091-4.874,13.153-2.946a5.522,5.522,0,0,1,1.572-.126,3.761,3.761,0,0,1,1.438.374,3.292,3.292,0,0,1,1.16.982,4.293,4.293,0,0,1,.738,1.7l.465,2.079a4.761,4.761,0,0,1,.093,1.843,3.156,3.156,0,0,1-.56,1.367,3.428,3.428,0,0,1-1.071.935,5.126,5.126,0,0,1-1.44.549l-17.633,3.949a5.156,5.156,0,0,1-1.536.118,3.439,3.439,0,0,1-1.367-.39,3.178,3.178,0,0,1-1.089-1,4.746,4.746,0,0,1-.7-1.705l-.465-2.08a4.761,4.761,0,0,1-.093-1.843,3.18,3.18,0,0,1,.56-1.367,3.445,3.445,0,0,1,1.069-.936,5.147,5.147,0,0,1,1.44-.549l1.755-.394.618,2.76Z" transform="translate(-259.568 -891.454)" fill="#1ed65b"/>
        <path id="Контур_242" data-name="Контур 242" d="M275.473,960.47l.308,3.143-7.816,3.092.162,1.645,8.04-.789.276,2.814-25.367,2.488-.524-5.337a4.724,4.724,0,0,1,.134-1.839,3.352,3.352,0,0,1,.72-1.306,3.31,3.31,0,0,1,1.174-.816,5.152,5.152,0,0,1,1.5-.367l9.5-.932a4.049,4.049,0,0,1,2.456.387,3.659,3.659,0,0,1,1.418,1.484l8.017-3.665Zm-21.115,5.576a1.287,1.287,0,0,0-.745.314,1,1,0,0,0-.244.891l.248,2.521,11.7-1.148-.248-2.522a1.252,1.252,0,0,0-.315-.763,1.027,1.027,0,0,0-.889-.226l-9.5.932Z" transform="translate(-249.67 -833.265)" fill="#1ed65b"/>
        <path id="Контур_243" data-name="Контур 243" d="M255.2,894.1a3.739,3.739,0,0,1,2.832-.866l9.509.239a5.194,5.194,0,0,1,1.518.258,3.422,3.422,0,0,1,1.231.711,3.184,3.184,0,0,1,.814,1.233,4.734,4.734,0,0,1,.266,1.825l-.055,2.2a4.722,4.722,0,0,1-.358,1.809,3.159,3.159,0,0,1-.875,1.19,3.4,3.4,0,0,1-1.265.647,5.17,5.17,0,0,1-1.529.182l-6.977-.176.071-2.826,6.976.176a1.286,1.286,0,0,0,.777-.219,1,1,0,0,0,.353-.855l.055-2.2a1.006,1.006,0,0,0-.308-.854,1.219,1.219,0,0,0-.764-.276l-9.509-.239a1,1,0,0,0-.852.31,1.219,1.219,0,0,0-.276.764l-.062,2.459-2.826-.071-4.72-3.683-.478-.013-.182,7.233-2.826-.071.253-10.059,4.259.107,3.81,3.366a4.035,4.035,0,0,1,1.142-2.3Z" transform="translate(-245.74 -777.761)" fill="#1ed65b"/>
        <path id="Контур_244" data-name="Контур 244" d="M249.436,817.44l2.8.4-.8,5.6,5.2.747.606-4.216,2.835.408-.606,4.216,11.6,1.666.8-5.6,2.8.4-1.206,8.4L248.23,825.84l1.206-8.4Z" transform="translate(-247.786 -715.723)" fill="#1ed65b"/>
        <path id="Контур_245" data-name="Контур 245" d="M283.432,752.395l-24.622-6.586.731-2.732,4.15,1.11,5.3-2.915-8.374-2.24.731-2.732,24.622,6.586-.731,2.732-12.7-3.4-5.162,2.953,16.781,4.489-.731,2.732Z" transform="translate(-256.481 -649.042)" fill="#1ed65b"/>
        <path id="Контур_246" data-name="Контур 246" d="M292.344,661.688l4.031-1.8,11.932,4.879-1.071,2.618-10.845-4.433-3.01,1.149,1.288,2.867,10.913,4.462-1.071,2.618-12-4.906-1.572-4.015-3.935,1.764L280.92,664.4l1.071-2.618,5,2.044,2.928-1.144-1.342-2.93-4.929-2.015,1.071-2.618,6.085,2.488,1.545,4.083Z" transform="translate(-274.651 -582.328)" fill="#1ed65b"/>
        <path id="Контур_247" data-name="Контур 247" d="M327.022,589.167l-1.566-.886a1.232,1.232,0,0,0-.8-.157,1.006,1.006,0,0,0-.7.572l-1.05,1.853a1.008,1.008,0,0,0-.128.9,1.22,1.22,0,0,0,.545.6l15.726,8.9a1.221,1.221,0,0,0,.8.157,1.006,1.006,0,0,0,.7-.572l1.05-1.853a1.008,1.008,0,0,0,.128-.9,1.212,1.212,0,0,0-.545-.6l-9.462-5.353-1.067,1.885-2.461-1.393,2.459-4.346,11.731,6.638a5.536,5.536,0,0,1,1.249.96,3.775,3.775,0,0,1,.816,1.242,3.29,3.29,0,0,1,.2,1.508,4.289,4.289,0,0,1-.592,1.753l-1.05,1.853a4.754,4.754,0,0,1-1.167,1.429,3.152,3.152,0,0,1-1.331.638,3.423,3.423,0,0,1-1.422-.023,5.18,5.18,0,0,1-1.434-.558l-15.726-8.9a5.173,5.173,0,0,1-1.219-.943,3.452,3.452,0,0,1-.752-1.206,3.163,3.163,0,0,1-.139-1.47,4.757,4.757,0,0,1,.624-1.736l1.05-1.853a4.753,4.753,0,0,1,1.167-1.429,3.171,3.171,0,0,1,1.333-.638,3.452,3.452,0,0,1,1.422.023,5.132,5.132,0,0,1,1.435.559l1.566.886-1.394,2.461Z" transform="translate(-306.592 -524.848)" fill="#1ed65b"/>
        <path id="Контур_248" data-name="Контур 248" d="M385.234,525.776l-3.031,4.015,3.544,3.412-1.7,2.256L365.45,517.786l3.63-4.806,22.111,13.014-1.727,2.286-4.23-2.5ZM383,524.461l-13.2-7.755-.576.763,11.095,10.54L383,524.463Z" transform="translate(-344.118 -465.517)" fill="#1ed65b"/>
        <path id="Контур_249" data-name="Контур 249" d="M427.533,407.3l17.4,18.629-2.067,1.93-7.52-8.053-7.878-8.974-.752.7,9.443,14.147-3.436,3.209L419.25,418.5l-.752.7,8.415,8.473,7.52,8.053-2.067,1.93-17.4-18.629,4.214-3.935,13.36,10.539.376-.351-9.6-14.049,4.214-3.935Z" transform="translate(-384.814 -378.669)" fill="#1ed65b"/>
        <path id="Контур_250" data-name="Контур 250" d="M517.892,359.8l1.6,2.334-4.669,3.193,2.965,4.336,3.516-2.406,1.618,2.365-3.516,2.406,6.615,9.669,4.669-3.193,1.6,2.334-7,4.79L510.89,364.59Z" transform="translate(-463.641 -339.633)" fill="#1ed65b"/>
        <path id="Контур_251" data-name="Контур 251" d="M582.325,329.323a1.269,1.269,0,0,0,.148.793l1.52,2.894a1.26,1.26,0,0,0,.579.588,1.023,1.023,0,0,0,.909-.125l1.593-.837a4.765,4.765,0,0,1,1.755-.568,3.173,3.173,0,0,1,1.467.185,3.426,3.426,0,0,1,1.182.789,5.1,5.1,0,0,1,.9,1.247l4.542,8.65a5.1,5.1,0,0,1,.513,1.452,3.406,3.406,0,0,1-.021,1.422,3.183,3.183,0,0,1-.681,1.312,4.74,4.74,0,0,1-1.465,1.121l-1.593.837a4.735,4.735,0,0,1-1.755.568,3.15,3.15,0,0,1-1.467-.185,3.4,3.4,0,0,1-1.181-.789,5.1,5.1,0,0,1-.9-1.247l-3.535-6.73,2.5-1.315,3.535,6.731a1.283,1.283,0,0,0,.57.572,1,1,0,0,0,.918-.109l1.593-.838a1,1,0,0,0,.593-.686,1.223,1.223,0,0,0-.132-.8l-4.542-8.65a1.229,1.229,0,0,0-.586-.563,1,1,0,0,0-.9.1l-1.593.838a4.732,4.732,0,0,1-1.755.568,3.149,3.149,0,0,1-1.467-.185,3.4,3.4,0,0,1-1.181-.789,5.1,5.1,0,0,1-.9-1.247l-1.52-2.894a5.132,5.132,0,0,1-.513-1.452,3.407,3.407,0,0,1,.021-1.422,3.171,3.171,0,0,1,.681-1.312,4.739,4.739,0,0,1,1.465-1.121l1.593-.838a4.765,4.765,0,0,1,1.755-.568,3.2,3.2,0,0,1,1.467.184,3.425,3.425,0,0,1,1.181.789,5.152,5.152,0,0,1,.9,1.247l.837,1.593-2.5,1.315-.838-1.593a1.222,1.222,0,0,0-.586-.563,1,1,0,0,0-.9.1l-1.593.837a1,1,0,0,0-.611.693Z" transform="translate(-519.933 -310.788)" fill="#1ed65b"/>
      </g>
      <g id="Сгруппировать_15" data-name="Сгруппировать 15" transform="translate(78.345 78.532)">
        <path id="Контур_252" data-name="Контур 252" d="M749.4,470l2.867,1.36,2.9,8.8-1.93.638L750.6,472.8,748.57,471.7l-.966,2.042,2.657,8.044-1.93.638-2.921-8.846,1.459-2.734-2.8-1.326-1.481-4.485,1.93-.638,1.217,3.683,1.992,1.066.975-2.1-1.2-3.633,1.93-.638,1.481,4.485L749.406,470Z" transform="translate(-688.607 -458.837)" fill="#1ed65b"/>
        <path id="Контур_253" data-name="Контур 253" d="M808.9,454.192l-.246-1.269a.883.883,0,0,0-.287-.51.724.724,0,0,0-.641-.118l-1.5.292a.72.72,0,0,0-.551.349.872.872,0,0,0-.075.579l2.473,12.746a.877.877,0,0,0,.287.508.724.724,0,0,0,.641.118l1.5-.292a.72.72,0,0,0,.551-.349.871.871,0,0,0,.075-.579L809.641,458l-1.529.3-.387-2,3.523-.684,1.846,9.509a4.038,4.038,0,0,1,.059,1.132,2.721,2.721,0,0,1-.3,1.026,2.4,2.4,0,0,1-.729.814,3.1,3.1,0,0,1-1.235.5l-1.5.292a3.388,3.388,0,0,1-1.326.029,2.285,2.285,0,0,1-.971-.429,2.452,2.452,0,0,1-.651-.788,3.683,3.683,0,0,1-.363-1.044l-2.473-12.747a3.755,3.755,0,0,1-.053-1.1,2.449,2.449,0,0,1,.308-.973,2.28,2.28,0,0,1,.74-.763,3.385,3.385,0,0,1,1.24-.469l1.5-.292a3.389,3.389,0,0,1,1.326-.029,2.306,2.306,0,0,1,.971.429,2.476,2.476,0,0,1,.65.788,3.678,3.678,0,0,1,.364,1.044l.246,1.269-2,.387Z" transform="translate(-738.69 -448.527)" fill="#1ed65b"/>
        <path id="Контур_254" data-name="Контур 254" d="M869.2,461.211l-2.265.157-2.06-5.677-1.185.082.4,5.791-2.028.141L860.8,443.433l3.844-.267a3.4,3.4,0,0,1,1.319.134,2.417,2.417,0,0,1,.923.543,2.386,2.386,0,0,1,.563.861,3.737,3.737,0,0,1,.233,1.082l.476,6.845a2.905,2.905,0,0,1-.328,1.755,2.626,2.626,0,0,1-1.1.989l2.468,5.834Zm-3.575-15.28a.917.917,0,0,0-.21-.542.715.715,0,0,0-.634-.194l-1.816.127.585,8.425,1.816-.127a.906.906,0,0,0,.554-.21.737.737,0,0,0,.18-.634l-.476-6.845Z" transform="translate(-785.752 -442.716)" fill="#1ed65b"/>
        <path id="Контур_255" data-name="Контур 255" d="M920.731,447.678a2.694,2.694,0,0,1,.565,2.051l-.365,6.825a3.75,3.75,0,0,1-.216,1.085,2.471,2.471,0,0,1-.535.87,2.272,2.272,0,0,1-.9.56,3.42,3.42,0,0,1-1.317.155l-1.581-.084a3.375,3.375,0,0,1-1.292-.294,2.277,2.277,0,0,1-.838-.652,2.469,2.469,0,0,1-.44-.921,3.677,3.677,0,0,1-.1-1.1l.267-5.007,2.03.109-.267,5.007a.932.932,0,0,0,.141.563.717.717,0,0,0,.606.271l1.581.084a.724.724,0,0,0,.618-.2.872.872,0,0,0,.214-.543l.365-6.825a.724.724,0,0,0-.2-.618.872.872,0,0,0-.544-.214l-1.766-.094.109-2.03,2.741-3.316.018-.342-5.191-.278.109-2.03,7.221.387-.164,3.058-2.495,2.668a2.894,2.894,0,0,1,1.632.868Z" transform="translate(-829.229 -440.7)" fill="#1ed65b"/>
        <path id="Контур_256" data-name="Контур 256" d="M970.49,445.215l-.346,2-4.006-.691-.641,3.719,3.017.52-.349,2.028-3.017-.52-1.431,8.3,4.006.691-.346,2-6.007-1.035,3.111-18.05,6.007,1.035Z" transform="translate(-868.4 -443.56)" fill="#1ed65b"/>
        <path id="Контур_257" data-name="Контур 257" d="M1002.652,470.733l5.228-17.553,1.948.579-.882,2.96,1.987,3.869,1.778-5.97,1.948.579-5.228,17.553-1.948-.579,2.7-9.054-2.017-3.767-3.564,11.964-1.948-.579Z" transform="translate(-902.324 -450.956)" fill="#1ed65b"/>
        <path id="Контур_258" data-name="Контур 258" d="M1057.952,478.849l1.214,2.931-3.746,8.472-1.859-.822,3.4-7.7-.764-2.185-2.087.868-3.425,7.748-1.859-.822,3.767-8.52,2.915-1.048-1.187-2.862,1.91-4.321,1.859.822-1.568,3.548.763,2.126,2.131-.905,1.547-3.5,1.859.822-1.91,4.321-2.965,1.026Z" transform="translate(-940.275 -465.264)" fill="#1ed65b"/>
        <path id="Контур_259" data-name="Контур 259" d="M1109.381,505.3l.668-1.107a.881.881,0,0,0,.128-.57.72.72,0,0,0-.4-.517l-1.31-.791a.724.724,0,0,0-.643-.111.878.878,0,0,0-.445.38l-6.711,11.116a.881.881,0,0,0-.128.57.719.719,0,0,0,.4.517l1.31.791a.723.723,0,0,0,.643.11.875.875,0,0,0,.444-.38l4.038-6.688-1.333-.805,1.05-1.739,3.072,1.855-5.005,8.292a3.986,3.986,0,0,1-.715.878,2.68,2.68,0,0,1-.909.561,2.373,2.373,0,0,1-1.087.114,3.073,3.073,0,0,1-1.247-.46l-1.31-.791a3.4,3.4,0,0,1-1-.868,2.256,2.256,0,0,1-.431-.969,2.453,2.453,0,0,1,.046-1.021,3.663,3.663,0,0,1,.431-1.019l6.711-11.116a3.653,3.653,0,0,1,.7-.855,2.473,2.473,0,0,1,.882-.517,2.261,2.261,0,0,1,1.058-.07,3.422,3.422,0,0,1,1.235.483l1.31.791a3.373,3.373,0,0,1,1,.868,2.257,2.257,0,0,1,.431.969,2.458,2.458,0,0,1-.046,1.021,3.685,3.685,0,0,1-.431,1.019l-.668,1.107-1.739-1.05Z" transform="translate(-981.03 -489.484)" fill="#1ed65b"/>
        <path id="Контур_260" data-name="Контур 260" d="M1141.612,548.279l-2.823-2.26-2.523,2.477-1.586-1.271,13.074-13,3.378,2.705-9.8,15.617-1.607-1.287,1.885-2.988Zm.989-1.575,5.839-9.322-.536-.429-7.8,7.755Z" transform="translate(-1010.827 -517.563)" fill="#1ed65b"/>
        <path id="Контур_261" data-name="Контур 261" d="M1199.534,580.123,1185.8,592.239l-1.344-1.524,5.938-5.237L1197,580l-.488-.554-10.355,6.494-2.234-2.534,7.735-9.462-.488-.554-6.258,5.872-5.937,5.237-1.344-1.524,13.735-12.116,2.741,3.108-7.843,9.38.244.276,10.287-6.611,2.741,3.108Z" transform="translate(-1046.123 -547.666)" fill="#1ed65b"/>
        <path id="Контур_262" data-name="Контур 262" d="M1246.86,646.287l-1.709,1.1-2.2-3.418-3.174,2.042,1.656,2.575-1.73,1.114-1.655-2.575-7.08,4.555,2.2,3.418-1.709,1.1-3.3-5.127,15.4-9.91,3.3,5.127Z" transform="translate(-1087.649 -605.438)" fill="#1ed65b"/>
        <path id="Контур_263" data-name="Контур 263" d="M1270.251,692.788a.92.92,0,0,0-.574.089l-2.11,1.032a.909.909,0,0,0-.435.4.738.738,0,0,0,.071.656l.568,1.162a3.413,3.413,0,0,1,.372,1.272,2.3,2.3,0,0,1-.162,1.05,2.438,2.438,0,0,1-.592.832,3.731,3.731,0,0,1-.914.624l-6.3,3.086a3.648,3.648,0,0,1-1.053.339,2.478,2.478,0,0,1-1.021-.045,2.269,2.269,0,0,1-.928-.515,3.4,3.4,0,0,1-.775-1.075l-.568-1.162a3.38,3.38,0,0,1-.372-1.272,2.277,2.277,0,0,1,.162-1.05,2.435,2.435,0,0,1,.592-.832,3.786,3.786,0,0,1,.914-.624l4.908-2.4.893,1.825-4.908,2.4a.916.916,0,0,0-.422.4.713.713,0,0,0,.059.661l.568,1.162a.719.719,0,0,0,.479.44.879.879,0,0,0,.579-.078l6.307-3.086a.887.887,0,0,0,.417-.41.728.728,0,0,0-.053-.651l-.568-1.162a3.382,3.382,0,0,1-.372-1.272,2.277,2.277,0,0,1,.162-1.05,2.437,2.437,0,0,1,.592-.832,3.726,3.726,0,0,1,.914-.624l2.11-1.032a3.7,3.7,0,0,1,1.053-.339,2.478,2.478,0,0,1,1.021.045,2.282,2.282,0,0,1,.928.515,3.424,3.424,0,0,1,.775,1.075l.568,1.162a3.413,3.413,0,0,1,.372,1.272,2.3,2.3,0,0,1-.162,1.05,2.455,2.455,0,0,1-.592.832,3.727,3.727,0,0,1-.914.624l-1.162.569-.893-1.825,1.162-.568a.887.887,0,0,0,.417-.41.729.729,0,0,0-.053-.65l-.568-1.162a.719.719,0,0,0-.486-.453Z" transform="translate(-1110.074 -646.13)" fill="#1ed65b"/>
        <path id="Контур_264" data-name="Контур 264" d="M1285.064,746.577l-1.333,2.88-8.767,2.989-.656-1.923,7.969-2.716,1.089-2.044-2.051-.946-8.019,2.734-.656-1.923,8.817-3,2.748,1.435,1.3-2.814,4.471-1.524.656,1.923-3.673,1.251-1.046,2,2.11.953,3.623-1.235.656,1.923-4.471,1.524-2.764-1.484Z" transform="translate(-1124.203 -686.435)" fill="#1ed65b"/>
        <path id="Контур_265" data-name="Контур 265" d="M1305.6,805.994l1.267-.258a.875.875,0,0,0,.506-.292.722.722,0,0,0,.11-.641l-.3-1.5a.723.723,0,0,0-.355-.547.882.882,0,0,0-.579-.071l-12.723,2.593a.875.875,0,0,0-.506.292.725.725,0,0,0-.112.642l.307,1.5a.723.723,0,0,0,.355.547.882.882,0,0,0,.579.071l7.654-1.559-.312-1.525,1.99-.406.716,3.518-9.491,1.933a4.04,4.04,0,0,1-1.13.069,2.723,2.723,0,0,1-1.028-.289,2.354,2.354,0,0,1-.82-.722,3.1,3.1,0,0,1-.506-1.23l-.307-1.5a3.415,3.415,0,0,1-.041-1.326,2.278,2.278,0,0,1,.421-.975,2.45,2.45,0,0,1,.782-.658,3.782,3.782,0,0,1,1.041-.374l12.723-2.593a3.764,3.764,0,0,1,1.1-.064,2.464,2.464,0,0,1,.977.3,2.25,2.25,0,0,1,.768.732,3.375,3.375,0,0,1,.481,1.235l.3,1.5a3.405,3.405,0,0,1,.041,1.324,2.3,2.3,0,0,1-.421.975,2.5,2.5,0,0,1-.782.658,3.669,3.669,0,0,1-1.041.374l-1.267.258-.406-1.99Z" transform="translate(-1139.147 -736.477)" fill="#1ed65b"/>
        <path id="Контур_266" data-name="Контур 266" d="M1299.851,866.2l-.178-2.263,5.658-2.113-.093-1.183-5.788.456-.16-2.026,18.258-1.44.3,3.842a3.421,3.421,0,0,1-.121,1.32,2.308,2.308,0,0,1-1.392,1.5,3.71,3.71,0,0,1-1.08.244l-6.841.54a2.9,2.9,0,0,1-1.759-.312,2.634,2.634,0,0,1-1-1.085l-5.811,2.523Zm15.247-3.717a.922.922,0,0,0,.538-.214.717.717,0,0,0,.189-.638l-.143-1.816-8.42.665.142,1.816a.9.9,0,0,0,.216.552.737.737,0,0,0,.636.175Z" transform="translate(-1146.104 -783.334)" fill="#1ed65b"/>
        <path id="Контур_267" data-name="Контур 267" d="M1314.107,918.267a2.684,2.684,0,0,1-2.046.583l-6.829-.3a3.711,3.711,0,0,1-1.087-.207,2.453,2.453,0,0,1-.875-.527,2.287,2.287,0,0,1-.568-.9,3.4,3.4,0,0,1-.166-1.315l.07-1.582a3.418,3.418,0,0,1,.281-1.3,2.262,2.262,0,0,1,.645-.843,2.467,2.467,0,0,1,.918-.449,3.721,3.721,0,0,1,1.1-.11l5.009.221-.089,2.03-5.009-.221a.929.929,0,0,0-.561.146.717.717,0,0,0-.266.609l-.069,1.582a.719.719,0,0,0,.21.617.876.876,0,0,0,.545.208l6.828.3a.719.719,0,0,0,.617-.21.874.874,0,0,0,.208-.545l.078-1.766,2.03.089,3.341,2.71.342.014.23-5.195,2.03.089-.319,7.224-3.058-.135-2.691-2.47a2.889,2.889,0,0,1-.852,1.639Z" transform="translate(-1148.767 -827.456)" fill="#1ed65b"/>
        <path id="Контур_268" data-name="Контур 268" d="M1314.565,968.132l-2-.326.654-4.011-3.724-.608-.492,3.022-2.031-.331.492-3.022-8.309-1.352-.654,4.011-2-.326.98-6.018,18.076,2.944-.98,6.018Z" transform="translate(-1143.803 -866.779)" fill="#1ed65b"/>
        <path id="Контур_269" data-name="Контур 269" d="M1287.123,1000.492l17.6,5.064-.561,1.953-2.967-.854-3.849,2.023,5.986,1.721-.561,1.953-17.6-5.064.561-1.953,9.079,2.612,3.749-2.053-12-3.452.562-1.953Z" transform="translate(-1134.5 -900.736)" fill="#1ed65b"/>
        <path id="Контур_270" data-name="Контур 270" d="M1279.1,1055.828l-2.921,1.242-8.507-3.666.8-1.866,7.732,3.332,2.177-.786-.885-2.078-7.78-3.352.8-1.866,8.555,3.687,1.076,2.906,2.851-1.214,4.337,1.869-.8,1.866-3.562-1.536-2.119.782.925,2.122,3.514,1.515-.8,1.866-4.339-1.869-1.055-2.954Z" transform="translate(-1120.118 -938.786)" fill="#1ed65b"/>
        <path id="Контур_271" data-name="Контур 271" d="M1261.925,1107.39l1.114.657a.885.885,0,0,0,.572.123.722.722,0,0,0,.513-.4l.779-1.317a.726.726,0,0,0,.105-.643.868.868,0,0,0-.383-.44l-11.179-6.606a.885.885,0,0,0-.572-.123.717.717,0,0,0-.513.4l-.779,1.319a.726.726,0,0,0-.1.643.876.876,0,0,0,.383.44l6.725,3.974.793-1.34,1.75,1.034-1.827,3.09-8.338-4.927a4,4,0,0,1-.885-.707,2.715,2.715,0,0,1-.57-.9,2.386,2.386,0,0,1-.125-1.085,3.08,3.08,0,0,1,.449-1.253l.779-1.319a3.4,3.4,0,0,1,.857-1.01,2.255,2.255,0,0,1,.966-.44,2.452,2.452,0,0,1,1.021.036,3.68,3.68,0,0,1,1.023.421l11.178,6.606a3.734,3.734,0,0,1,.862.693,2.447,2.447,0,0,1,.524.877,2.3,2.3,0,0,1,.08,1.059,3.4,3.4,0,0,1-.472,1.238l-.779,1.317a3.446,3.446,0,0,1-.857,1.01,2.277,2.277,0,0,1-.966.44,2.479,2.479,0,0,1-1.021-.036,3.706,3.706,0,0,1-1.023-.421l-1.114-.657,1.034-1.75Z" transform="translate(-1105.079 -979.652)" fill="#1ed65b"/>
        <path id="Контур_272" data-name="Контур 272" d="M1216.647,1139.963l2.233-2.844-2.5-2.5,1.255-1.6,13.119,12.95-2.673,3.4-15.71-9.65,1.271-1.62,3.006,1.857Zm1.584.975,9.377,5.75.424-.54-7.828-7.721-1.973,2.513Z" transform="translate(-1074.673 -1009.65)" fill="#1ed65b"/>
        <path id="Контур_273" data-name="Контур 273" d="M1171.314,1198.166l-12.244-13.621,1.511-1.358,5.292,5.888,5.538,6.556.549-.494-6.59-10.293,2.513-2.258,9.535,7.647.549-.494-5.93-6.2-5.292-5.888,1.511-1.358,12.244,13.621-3.081,2.769-9.453-7.753-.275.247,6.706,10.225-3.081,2.769Z" transform="translate(-1030.871 -1045.209)" fill="#1ed65b"/>
        <path id="Контур_274" data-name="Контур 274" d="M1134.624,1246.006l-1.115-1.7,3.4-2.231-2.071-3.154-2.559,1.681-1.13-1.722,2.559-1.68-4.621-7.037-3.4,2.231-1.116-1.7,5.1-3.346,10.052,15.311-5.1,3.347Z" transform="translate(-1002.518 -1087.17)" fill="#1ed65b"/>
        <path id="Контур_275" data-name="Контур 275" d="M1099.159,1269.77a.917.917,0,0,0-.094-.572l-1.053-2.1a.909.909,0,0,0-.408-.431.738.738,0,0,0-.654.077l-1.156.579a3.429,3.429,0,0,1-1.269.385,2.281,2.281,0,0,1-1.049-.153,2.493,2.493,0,0,1-.839-.583,3.662,3.662,0,0,1-.633-.909l-3.145-6.276a3.7,3.7,0,0,1-.349-1.049,2.481,2.481,0,0,1,.034-1.021,2.273,2.273,0,0,1,.506-.932,3.4,3.4,0,0,1,1.067-.786l1.157-.579a3.4,3.4,0,0,1,1.269-.385,2.265,2.265,0,0,1,1.051.153,2.466,2.466,0,0,1,.839.583,3.734,3.734,0,0,1,.633.909l2.447,4.884-1.818.911-2.447-4.884a.923.923,0,0,0-.4-.419.716.716,0,0,0-.661.066l-1.156.579a.723.723,0,0,0-.437.485.874.874,0,0,0,.084.577l3.145,6.276a.886.886,0,0,0,.414.413.728.728,0,0,0,.649-.059l1.156-.579a3.427,3.427,0,0,1,1.269-.385,2.264,2.264,0,0,1,1.051.153,2.47,2.47,0,0,1,.839.583,3.705,3.705,0,0,1,.633.909l1.053,2.1a3.775,3.775,0,0,1,.349,1.05,2.483,2.483,0,0,1-.034,1.021,2.287,2.287,0,0,1-.506.934,3.414,3.414,0,0,1-1.067.786l-1.157.579a3.428,3.428,0,0,1-1.269.385,2.265,2.265,0,0,1-1.051-.153,2.511,2.511,0,0,1-.839-.583,3.72,3.72,0,0,1-.633-.909l-.579-1.156,1.818-.91.579,1.156a.885.885,0,0,0,.413.413.722.722,0,0,0,.649-.059l1.156-.579a.713.713,0,0,0,.447-.49Z" transform="translate(-972.852 -1109.916)" fill="#1ed65b"/>
        <path id="Контур_276" data-name="Контур 276" d="M1045.3,1284.983l-2.892-1.306-3.07-8.739,1.918-.674,2.79,7.942,2.055,1.069.927-2.06-2.808-7.992,1.918-.674,3.088,8.789-1.408,2.76,2.824,1.274,1.566,4.457-1.917.674-1.287-3.66-2.012-1.028-.934,2.119,1.269,3.61-1.917.674-1.566-4.457Z" transform="translate(-932.476 -1124.316)" fill="#1ed65b"/>
        <path id="Контур_277" data-name="Контур 277" d="M999.814,1306.056l.271,1.265a.883.883,0,0,0,.3.5.726.726,0,0,0,.643.105l1.5-.319a.721.721,0,0,0,.543-.36.875.875,0,0,0,.064-.581l-2.714-12.7a.884.884,0,0,0-.3-.5.719.719,0,0,0-.643-.105l-1.5.321a.721.721,0,0,0-.543.36.875.875,0,0,0-.064.581l1.632,7.639,1.522-.326.424,1.987-3.51.75-2.024-9.471a4.037,4.037,0,0,1-.08-1.13,2.716,2.716,0,0,1,.28-1.032,2.366,2.366,0,0,1,.714-.827,3.094,3.094,0,0,1,1.226-.518l1.5-.321a3.4,3.4,0,0,1,1.324-.053,2.276,2.276,0,0,1,.978.411,2.447,2.447,0,0,1,.665.775,3.685,3.685,0,0,1,.383,1.039l2.714,12.7a3.77,3.77,0,0,1,.075,1.1,2.474,2.474,0,0,1-.29.98,2.265,2.265,0,0,1-.725.775,3.411,3.411,0,0,1-1.231.492l-1.5.319a3.4,3.4,0,0,1-1.324.053,2.291,2.291,0,0,1-.978-.412,2.444,2.444,0,0,1-.665-.775,3.693,3.693,0,0,1-.383-1.037l-.271-1.265,1.987-.424Z" transform="translate(-896.304 -1139.708)" fill="#1ed65b"/>
        <path id="Контур_278" data-name="Контур 278" d="M944.932,1300.681l2.261-.2,2.167,5.636,1.183-.105-.511-5.784,2.024-.178,1.613,18.244-3.838.339a3.407,3.407,0,0,1-1.32-.109,2.312,2.312,0,0,1-1.513-1.378,3.7,3.7,0,0,1-.255-1.076l-.6-6.836a2.919,2.919,0,0,1,.294-1.761,2.623,2.623,0,0,1,1.076-1.009l-2.578-5.786Zm3.862,15.211a.919.919,0,0,0,.219.536.714.714,0,0,0,.638.182l1.814-.16-.743-8.413-1.814.16a.9.9,0,0,0-.551.221.736.736,0,0,0-.169.638l.6,6.836Z" transform="translate(-854.89 -1146.915)" fill="#1ed65b"/>
        <path id="Контур_279" data-name="Контур 279" d="M896.767,1315.573a2.692,2.692,0,0,1-.6-2.042l.237-6.83a3.716,3.716,0,0,1,.2-1.089,2.485,2.485,0,0,1,.518-.88,2.288,2.288,0,0,1,.891-.577,3.4,3.4,0,0,1,1.313-.178l1.582.055a3.4,3.4,0,0,1,1.3.269,2.286,2.286,0,0,1,.85.636,2.425,2.425,0,0,1,.456.914,3.651,3.651,0,0,1,.119,1.1l-.175,5.011-2.031-.071.175-5.011a.913.913,0,0,0-.153-.56.717.717,0,0,0-.611-.258l-1.582-.055a.726.726,0,0,0-.615.216.876.876,0,0,0-.2.547l-.237,6.83a.726.726,0,0,0,.216.615.876.876,0,0,0,.547.2l1.768.061-.071,2.031-2.678,3.366-.012.342,5.2.18-.071,2.031-7.226-.251.107-3.06,2.445-2.714a2.907,2.907,0,0,1-1.648-.836Z" transform="translate(-814.564 -1150.139)" fill="#1ed65b"/>
        <path id="Контур_280" data-name="Контур 280" d="M842.12,1316.563l.308-2.008,4.017.617.572-3.73-3.026-.463.312-2.035,3.026.464,1.276-8.322-4.017-.617.308-2.008,6.027.923-2.775,18.1-6.027-.923Z" transform="translate(-770.401 -1145.609)" fill="#1ed65b"/>
        <path id="Контур_281" data-name="Контур 281" d="M796.1,1289.453l-4.9,17.649-1.958-.543.825-2.976-2.06-3.831-1.664,6-1.958-.543,4.9-17.649,1.958.543-2.527,9.1,2.087,3.73,3.338-12.028,1.958.543Z" transform="translate(-722.958 -1136.651)" fill="#1ed65b"/>
        <path id="Контур_282" data-name="Контур 282" d="M731.422,1281.949l-1.269-2.908,3.585-8.541,1.873.787-3.259,7.762.805,2.17,2.069-.905,3.279-7.81,1.873.786-3.6,8.589-2.9,1.1,1.24,2.839-1.828,4.355-1.873-.786,1.5-3.577-.8-2.112-2.113.945-1.481,3.528-1.873-.786,1.828-4.355,2.944-1.082Z" transform="translate(-675.507 -1122.631)" fill="#1ed65b"/>
        <path id="Контур_283" data-name="Контур 283" d="M679.979,1265.161l-.647,1.119a.886.886,0,0,0-.118.572.722.722,0,0,0,.406.51l1.326.766a.725.725,0,0,0,.645.1.887.887,0,0,0,.438-.387l6.5-11.241a.886.886,0,0,0,.118-.572.721.721,0,0,0-.406-.51l-1.326-.766a.726.726,0,0,0-.645-.1.877.877,0,0,0-.437.387l-3.91,6.763,1.347.779-1.018,1.759-3.108-1.8,4.849-8.384a3.94,3.94,0,0,1,.7-.891,2.69,2.69,0,0,1,.9-.577,2.376,2.376,0,0,1,1.083-.135,3.094,3.094,0,0,1,1.256.437l1.326.766a3.417,3.417,0,0,1,1.019.848,2.279,2.279,0,0,1,.449.96,2.475,2.475,0,0,1-.027,1.021,3.69,3.69,0,0,1-.412,1.026l-6.5,11.241a3.714,3.714,0,0,1-.686.87,2.48,2.48,0,0,1-.871.533,2.273,2.273,0,0,1-1.058.089,3.4,3.4,0,0,1-1.244-.46l-1.326-.766a3.414,3.414,0,0,1-1.019-.848,2.3,2.3,0,0,1-.451-.96,2.474,2.474,0,0,1,.027-1.021,3.7,3.7,0,0,1,.412-1.028l.647-1.119,1.759,1.018Z" transform="translate(-634.779 -1107.875)" fill="#1ed65b"/>
        <path id="Контур_284" data-name="Контур 284" d="M635.144,1220.288l2.865,2.206,2.475-2.523,1.611,1.24-12.825,13.24-3.43-2.641,9.5-15.8,1.631,1.256-1.828,3.022Zm-.961,1.593-5.661,9.43.543.419,7.648-7.9-2.53-1.948Z" transform="translate(-592.661 -1077.851)" fill="#1ed65b"/>
        <path id="Контур_285" data-name="Контур 285" d="M550.922,1175.6l13.506-12.372,1.372,1.5-5.838,5.348-6.5,5.6.5.545,10.23-6.688,2.283,2.491-7.556,9.607.5.545,6.146-5.989,5.838-5.348,1.372,1.5-13.506,12.372-2.8-3.054,7.664-9.526-.249-.273-10.161,6.8-2.8-3.054Z" transform="translate(-531.092 -1034.476)" fill="#1ed65b"/>
        <path id="Контур_286" data-name="Контур 286" d="M517.482,1139.135l1.687-1.132,2.261,3.377,3.134-2.1-1.7-2.543,1.711-1.146,1.7,2.543,6.994-4.685-2.261-3.377,1.688-1.132,3.393,5.064L520.873,1144.2l-3.393-5.064Z" transform="translate(-503.611 -1006.297)" fill="#1ed65b"/>
        <path id="Контур_287" data-name="Контур 287" d="M496.275,1103.882a.921.921,0,0,0,.572-.1l2.09-1.073a.911.911,0,0,0,.426-.412.732.732,0,0,0-.084-.654l-.59-1.151a3.371,3.371,0,0,1-.4-1.265,2.269,2.269,0,0,1,.143-1.051,2.487,2.487,0,0,1,.576-.845,3.731,3.731,0,0,1,.9-.641l6.246-3.2a3.694,3.694,0,0,1,1.046-.358,2.453,2.453,0,0,1,1.021.025,2.275,2.275,0,0,1,.937.5,3.419,3.419,0,0,1,.8,1.06l.59,1.151a3.418,3.418,0,0,1,.4,1.265,2.269,2.269,0,0,1-.143,1.051,2.484,2.484,0,0,1-.576.845,3.671,3.671,0,0,1-.9.64l-4.861,2.493-.928-1.809,4.861-2.493a.927.927,0,0,0,.415-.406.72.72,0,0,0-.071-.661l-.59-1.151a.718.718,0,0,0-.488-.431.875.875,0,0,0-.577.089l-6.246,3.2a.873.873,0,0,0-.408.417.72.72,0,0,0,.066.649l.59,1.151a3.406,3.406,0,0,1,.4,1.265,2.268,2.268,0,0,1-.143,1.051,2.486,2.486,0,0,1-.576.845,3.724,3.724,0,0,1-.9.641l-2.09,1.073a3.691,3.691,0,0,1-1.046.358,2.456,2.456,0,0,1-1.021-.025,2.3,2.3,0,0,1-.937-.5,3.422,3.422,0,0,1-.8-1.06l-.59-1.151a3.408,3.408,0,0,1-.4-1.265,2.292,2.292,0,0,1,.143-1.051,2.483,2.483,0,0,1,.576-.845,3.668,3.668,0,0,1,.9-.64l1.151-.59.927,1.809-1.151.59a.874.874,0,0,0-.408.417.726.726,0,0,0,.066.649l.59,1.151a.723.723,0,0,0,.494.444Z" transform="translate(-483.477 -976.832)" fill="#1ed65b"/>
        <path id="Контур_288" data-name="Контур 288" d="M472.835,1050.139l1.278-2.9,8.71-3.154.691,1.91-7.916,2.865-1.05,2.064,2.069.907,7.965-2.883.691,1.91-8.76,3.172-2.773-1.381-1.247,2.837-4.443,1.607-.691-1.91,3.648-1.32,1.009-2.021-2.128-.914-3.6,1.3-.691-1.91,4.443-1.607Z" transform="translate(-460.976 -936.559)" fill="#1ed65b"/>
        <path id="Контур_289" data-name="Контур 289" d="M455.616,1004.9l-1.262.281a.877.877,0,0,0-.5.3.725.725,0,0,0-.1.645l.333,1.493a.722.722,0,0,0,.364.54.875.875,0,0,0,.581.059l12.672-2.833a.877.877,0,0,0,.5-.3.721.721,0,0,0,.1-.643l-.335-1.493a.723.723,0,0,0-.364-.54.875.875,0,0,0-.581-.059l-7.623,1.705.34,1.52-1.983.444-.784-3.5,9.452-2.113a4.043,4.043,0,0,1,1.13-.091,2.712,2.712,0,0,1,1.034.269,2.391,2.391,0,0,1,.834.706,3.064,3.064,0,0,1,.529,1.221l.335,1.493a3.415,3.415,0,0,1,.066,1.324,2.269,2.269,0,0,1-.4.982,2.469,2.469,0,0,1-.77.672,3.725,3.725,0,0,1-1.034.394l-12.672,2.833a3.711,3.711,0,0,1-1.1.084,2.449,2.449,0,0,1-.982-.281,2.27,2.27,0,0,1-.782-.718,3.416,3.416,0,0,1-.5-1.226l-.333-1.493a3.413,3.413,0,0,1-.066-1.324,2.277,2.277,0,0,1,.4-.982,2.467,2.467,0,0,1,.77-.672,3.75,3.75,0,0,1,1.034-.394l1.262-.282Z" transform="translate(-449.525 -900.587)" fill="#1ed65b"/>
        <path id="Контур_290" data-name="Контур 290" d="M461.022,949.86l.221,2.259-5.617,2.22.116,1.181,5.779-.565.2,2.023-18.228,1.784-.376-3.835a3.4,3.4,0,0,1,.1-1.322,2.413,2.413,0,0,1,.519-.939,2.367,2.367,0,0,1,.845-.586,3.68,3.68,0,0,1,1.075-.264l6.829-.668a2.915,2.915,0,0,1,1.764.278,2.638,2.638,0,0,1,1.019,1.067l5.761-2.632Zm-15.174,4a.931.931,0,0,0-.535.225.719.719,0,0,0-.176.64l.178,1.812,8.406-.823-.178-1.812a.9.9,0,0,0-.226-.547.738.738,0,0,0-.64-.162Z" transform="translate(-442.479 -859.129)" fill="#1ed65b"/>
        <path id="Контур_291" data-name="Контур 291" d="M446.454,902.581a2.684,2.684,0,0,1,2.035-.622l6.834.173a3.68,3.68,0,0,1,1.091.185,2.446,2.446,0,0,1,.884.511,2.264,2.264,0,0,1,.585.886,3.407,3.407,0,0,1,.191,1.312l-.041,1.582a3.4,3.4,0,0,1-.257,1.3,2.289,2.289,0,0,1-.629.855,2.446,2.446,0,0,1-.909.465,3.693,3.693,0,0,1-1.1.13l-5.013-.127.052-2.031,5.013.127a.918.918,0,0,0,.558-.157.714.714,0,0,0,.253-.615l.041-1.582a.722.722,0,0,0-.223-.613.881.881,0,0,0-.549-.2l-6.834-.173a.722.722,0,0,0-.613.223.892.892,0,0,0-.2.549l-.045,1.768-2.031-.052-3.391-2.646-.342-.009-.132,5.2-2.031-.052.184-7.228,3.06.077,2.737,2.42a2.883,2.883,0,0,1,.821-1.656Z" transform="translate(-439.65 -819.583)" fill="#1ed65b"/>
        <path id="Контур_292" data-name="Контур 292" d="M442.291,847.912l2.012.289-.579,4.024,3.735.536.435-3.029,2.037.292-.435,3.029,8.333,1.2.577-4.024,2.012.289-.868,6.034-18.13-2.605.868-6.034Z" transform="translate(-441.105 -775.346)" fill="#1ed65b"/>
        <path id="Контур_293" data-name="Контур 293" d="M466.643,801.645l-17.693-4.733.526-1.964,2.983.8,3.812-2.094-6.016-1.609.526-1.964,17.693,4.733-.526,1.964-9.127-2.441-3.71,2.122,12.059,3.225-.526,1.964Z" transform="translate(-447.293 -727.821)" fill="#1ed65b"/>
        <path id="Контур_294" data-name="Контур 294" d="M472.9,736.89l2.9-1.3,8.575,3.505-.768,1.882-7.793-3.186-2.163.827.925,2.06,7.841,3.206-.768,1.882-8.623-3.525-1.13-2.885-2.828,1.267-4.373-1.787.768-1.882,3.591,1.468,2.1-.821-.964-2.1-3.543-1.447.768-1.882,4.373,1.787,1.11,2.935Z" transform="translate(-460.228 -680.23)" fill="#1ed65b"/>
        <path id="Контур_295" data-name="Контур 295" d="M497.635,685.2l-1.126-.636a.887.887,0,0,0-.574-.112.73.73,0,0,0-.506.412l-.754,1.333a.723.723,0,0,0-.093.645.872.872,0,0,0,.392.433l11.3,6.392a.884.884,0,0,0,.574.112.721.721,0,0,0,.506-.412l.754-1.333a.722.722,0,0,0,.093-.645.873.873,0,0,0-.392-.433l-6.8-3.845-.766,1.356-1.768-1,1.768-3.124,8.431,4.769a3.988,3.988,0,0,1,.9.69,2.685,2.685,0,0,1,.586.893,2.374,2.374,0,0,1,.146,1.083,3.085,3.085,0,0,1-.424,1.26l-.754,1.333a3.409,3.409,0,0,1-.839,1.026,2.281,2.281,0,0,1-.957.46,2.471,2.471,0,0,1-1.021-.016,3.682,3.682,0,0,1-1.032-.4l-11.3-6.392a3.664,3.664,0,0,1-.875-.677,2.444,2.444,0,0,1-.54-.866,2.264,2.264,0,0,1-.1-1.057,3.421,3.421,0,0,1,.447-1.247l.754-1.333a3.409,3.409,0,0,1,.839-1.026,2.282,2.282,0,0,1,.957-.46,2.471,2.471,0,0,1,1.021.016,3.684,3.684,0,0,1,1.032.4l1.126.636-1,1.768Z" transform="translate(-483.034 -639.275)" fill="#1ed65b"/>
        <path id="Контур_296" data-name="Контур 296" d="M539.207,639.983l-2.178,2.885,2.547,2.452-1.224,1.622-13.361-12.7,2.607-3.453,15.89,9.35-1.24,1.643-3.04-1.8Zm-1.6-.944-9.484-5.572-.413.547,7.973,7.573Z" transform="translate(-509.783 -596.916)" fill="#1ed65b"/>
        <path id="Контур_297" data-name="Контур 297" d="M569.326,555.164l12.5,13.388-1.486,1.386-5.4-5.788-5.66-6.451-.54.5,6.784,10.166-2.47,2.306-9.676-7.467-.54.5,6.046,6.089,5.4,5.788-1.486,1.386-12.5-13.388,3.029-2.828,9.6,7.575.271-.251-6.9-10.1,3.029-2.828Z" transform="translate(-538.8 -534.764)" fill="#1ed65b"/>
        <path id="Контур_298" data-name="Контур 298" d="M633.811,521.392l1.148,1.677-3.356,2.3,2.131,3.115,2.527-1.728,1.162,1.7-2.527,1.729,4.753,6.95,3.355-2.3,1.148,1.677-5.032,3.441L628.78,524.831l5.032-3.441Z" transform="translate(-595.077 -507.011)" fill="#1ed65b"/>
        <path id="Контур_299" data-name="Контур 299" d="M679.863,499.681a.914.914,0,0,0,.105.57l1.091,2.08a.9.9,0,0,0,.415.422.736.736,0,0,0,.654-.089l1.146-.6a3.415,3.415,0,0,1,1.262-.408,2.282,2.282,0,0,1,1.053.132,2.485,2.485,0,0,1,.85.568,3.715,3.715,0,0,1,.649.9l3.263,6.216a3.688,3.688,0,0,1,.369,1.042,2.458,2.458,0,0,1-.016,1.021,2.284,2.284,0,0,1-.488.943,3.4,3.4,0,0,1-1.053.805l-1.146.6a3.428,3.428,0,0,1-1.262.408,2.282,2.282,0,0,1-1.053-.132,2.459,2.459,0,0,1-.85-.568,3.718,3.718,0,0,1-.649-.9l-2.539-4.836,1.8-.944L686,511.748a.916.916,0,0,0,.41.412.716.716,0,0,0,.659-.078l1.146-.6a.724.724,0,0,0,.428-.492.872.872,0,0,0-.094-.576l-3.263-6.216a.873.873,0,0,0-.421-.4.729.729,0,0,0-.649.071l-1.146.6a3.4,3.4,0,0,1-1.262.408,2.282,2.282,0,0,1-1.053-.132,2.461,2.461,0,0,1-.85-.568,3.719,3.719,0,0,1-.649-.9l-1.091-2.08a3.7,3.7,0,0,1-.369-1.044,2.456,2.456,0,0,1,.016-1.021,2.293,2.293,0,0,1,.488-.943,3.406,3.406,0,0,1,1.053-.805l1.146-.6a3.4,3.4,0,0,1,1.262-.408,2.258,2.258,0,0,1,1.053.134,2.46,2.46,0,0,1,.85.568,3.714,3.714,0,0,1,.649.9l.6,1.146-1.8.945-.6-1.146a.872.872,0,0,0-.421-.4.723.723,0,0,0-.649.071l-1.146.6a.711.711,0,0,0-.438.5Z" transform="translate(-635.324 -486.444)" fill="#1ed65b"/>
      </g>
    </g>
  </g>
</svg>
