<svg id="rustore" xmlns="http://www.w3.org/2000/svg" width="43.313" height="43.174" viewBox="0 0 43.313 43.174">
  <path id="Контур_300" data-name="Контур 300" d="M129.033,69.6a4.318,4.318,0,0,1-1.094-.142l-6.693-1.751a1.57,1.57,0,1,1,.795-3.038l6.693,1.751a1.16,1.16,0,0,0,1.016-.214,1.406,1.406,0,0,0,.535-1.128V45.167a2.086,2.086,0,0,0-1.5-2.056l-11.316-2.961a1.16,1.16,0,0,0-1.015.214,1.406,1.406,0,0,0-.536,1.128v3a1.57,1.57,0,1,1-3.14,0v-3a4.524,4.524,0,0,1,1.757-3.613,4.287,4.287,0,0,1,3.729-.766l11.313,2.96a5.224,5.224,0,0,1,3.848,5.092V65.081a4.524,4.524,0,0,1-1.757,3.613A4.3,4.3,0,0,1,129.033,69.6Z" transform="translate(-90.798 -36.283)" fill="#1ed65b"/>
  <path id="Контур_300_-_Рамка" data-name="Контур 300 - Рамка" d="M128.72,69.976a5.01,5.01,0,0,1-1.268-.164l-6.693-1.751a2.257,2.257,0,1,1,1.143-4.367l6.693,1.751a.49.49,0,0,0,.124.017.5.5,0,0,0,.3-.11.725.725,0,0,0,.268-.584V44.854a1.4,1.4,0,0,0-.985-1.391L116.981,40.5a.488.488,0,0,0-.123-.017.5.5,0,0,0-.3.11.725.725,0,0,0-.268.584v3a2.257,2.257,0,1,1-4.514,0v-3a5.207,5.207,0,0,1,2.024-4.157,4.972,4.972,0,0,1,4.323-.887l11.313,2.96A5.91,5.91,0,0,1,133.8,44.85V64.768a5.207,5.207,0,0,1-2.024,4.157A4.962,4.962,0,0,1,128.72,69.976Zm-7.391-4.982a.883.883,0,0,0-.222,1.737l6.693,1.751a3.636,3.636,0,0,0,.92.119,3.6,3.6,0,0,0,2.215-.764,3.842,3.842,0,0,0,1.489-3.069V44.851a4.536,4.536,0,0,0-3.334-4.427l-11.314-2.961a3.6,3.6,0,0,0-3.135.645,3.842,3.842,0,0,0-1.49,3.069v3a.883.883,0,1,0,1.766,0v-3a2.088,2.088,0,0,1,.8-1.671,1.834,1.834,0,0,1,1.609-.335l11.316,2.961a2.771,2.771,0,0,1,2.013,2.72V64.768a2.088,2.088,0,0,1-.8,1.672,1.834,1.834,0,0,1-1.61.334l-6.693-1.751A.887.887,0,0,0,121.329,64.994Z" transform="translate(-90.485 -35.97)" fill="#161616"/>
  <path id="Контур_301" data-name="Контур 301" d="M88.349,87.123a4.318,4.318,0,0,1-1.1-.142l-8.239-2.156.795-3.038,8.24,2.156a1.159,1.159,0,0,0,1.015-.213A1.407,1.407,0,0,0,89.6,82.6V62.688a2.086,2.086,0,0,0-1.5-2.056L76.785,57.671a1.16,1.16,0,0,0-1.015.214,1.407,1.407,0,0,0-.536,1.128V63.47h-3.14V59.013A4.525,4.525,0,0,1,73.851,55.4a4.287,4.287,0,0,1,3.729-.766l11.312,2.96a5.224,5.224,0,0,1,3.849,5.092V82.6a4.525,4.525,0,0,1-1.757,3.614A4.3,4.3,0,0,1,88.349,87.123Z" transform="translate(-60.76 -49.22)" fill="#1ed65b"/>
  <path id="Контур_301_-_Рамка" data-name="Контур 301 - Рамка" d="M88.036,87.5h0a5.011,5.011,0,0,1-1.27-.164L77.863,85l1.143-4.367,8.9,2.33a.49.49,0,0,0,.124.017.5.5,0,0,0,.3-.109.725.725,0,0,0,.268-.584V62.375a1.4,1.4,0,0,0-.985-1.391L76.3,58.023a.489.489,0,0,0-.123-.017.5.5,0,0,0-.3.11.726.726,0,0,0-.268.584v5.144H71.094V58.7a5.208,5.208,0,0,1,2.024-4.158,4.962,4.962,0,0,1,3.055-1.051,5.012,5.012,0,0,1,1.268.164l11.312,2.96a5.91,5.91,0,0,1,4.362,5.756V82.29a5.207,5.207,0,0,1-2.025,4.158A4.961,4.961,0,0,1,88.036,87.5Zm-8.5-3.476L87.115,86a3.637,3.637,0,0,0,.921.119,3.6,3.6,0,0,0,2.214-.764,3.842,3.842,0,0,0,1.49-3.07V62.373a4.536,4.536,0,0,0-3.334-4.427L77.093,54.985a3.637,3.637,0,0,0-.92-.119,3.6,3.6,0,0,0-2.215.764,3.843,3.843,0,0,0-1.49,3.07V62.47h1.766V58.7a2.089,2.089,0,0,1,.8-1.672,1.834,1.834,0,0,1,1.609-.335l11.316,2.961a2.771,2.771,0,0,1,2.013,2.72V82.29a2.089,2.089,0,0,1-.8,1.672,1.834,1.834,0,0,1-1.609.334l-7.575-1.982Z" transform="translate(-60.448 -48.907)" fill="#161616"/>
  <path id="Контур_302" data-name="Контур 302" d="M47.661,104.644a4.318,4.318,0,0,1-1.092-.141l-11.312-2.959a5.225,5.225,0,0,1-3.849-5.092V76.534a4.463,4.463,0,0,1,4.393-4.52,4.317,4.317,0,0,1,1.093.141l11.313,2.96a5.225,5.225,0,0,1,3.848,5.092v19.916A4.463,4.463,0,0,1,47.661,104.644ZM35.8,75.154a1.321,1.321,0,0,0-1.253,1.38V96.448a2.086,2.086,0,0,0,1.5,2.056l11.315,2.96a1.177,1.177,0,0,0,.3.039,1.321,1.321,0,0,0,1.253-1.38V80.21a2.086,2.086,0,0,0-1.5-2.056L36.1,75.193A1.175,1.175,0,0,0,35.8,75.154Z" transform="translate(-30.721 -62.157)" fill="#1ed65b"/>
  <path id="Контур_302_-_Рамка" data-name="Контур 302 - Рамка" d="M47.348,105.018a5.006,5.006,0,0,1-1.266-.164L34.77,101.9a5.91,5.91,0,0,1-4.362-5.756V76.221a5.151,5.151,0,0,1,5.08-5.208,5.005,5.005,0,0,1,1.267.164l11.313,2.96a5.91,5.91,0,0,1,4.361,5.756V99.811A5.151,5.151,0,0,1,47.348,105.018Zm-11.86-32.63a3.776,3.776,0,0,0-3.706,3.833V96.138a4.536,4.536,0,0,0,3.334,4.427l11.314,2.96a3.63,3.63,0,0,0,.919.119,3.776,3.776,0,0,0,3.706-3.833V79.895a4.536,4.536,0,0,0-3.333-4.427L36.407,72.507A3.63,3.63,0,0,0,35.488,72.388Zm11.86,29.49a1.864,1.864,0,0,1-.472-.062l-11.315-2.96a2.771,2.771,0,0,1-2.013-2.72V76.221a2.008,2.008,0,0,1,1.94-2.068,1.862,1.862,0,0,1,.472.062l11.316,2.961a2.771,2.771,0,0,1,2.013,2.72V99.811A2.008,2.008,0,0,1,47.348,101.878Zm-11.86-26.35a.636.636,0,0,0-.566.693V96.135a1.4,1.4,0,0,0,.985,1.391l11.317,2.961a.49.49,0,0,0,.124.017.636.636,0,0,0,.566-.693V79.9a1.4,1.4,0,0,0-.985-1.391L35.612,75.545A.489.489,0,0,0,35.488,75.528Z" transform="translate(-30.408 -61.844)" fill="#161616"/>
</svg>
