<svg xmlns="http://www.w3.org/2000/svg" width="46.297" height="39.058" viewBox="0 0 46.297 39.058">
  <g id="telega" transform="translate(-806.824 -2561.605)">
    <path id="telegram-fill-svgrepo-com" d="M45.73,6.849a3.952,3.952,0,0,1,2.365.768,3.037,3.037,0,0,1,1.056,1.912,8.229,8.229,0,0,1,.079,1.905c-.6,6.309-3.223,21.668-4.428,28.111-.751,4.016-2.545,5.01-3.918,5.136-.168.015-.338.023-.506.023-2.072,0-3.71-1.168-5.294-2.3-.419-.3-.84-.6-1.269-.88-1.8-1.182-3.213-2.143-4.577-3.071-1.243-.847-2.529-1.722-4.113-2.766-1.056-.7-2.476-1.805-2.624-3.4-.155-1.676,1.115-2.9,2.344-4.085.3-.286.594-.573.878-.867.152-.158.614-.588,1.8-1.689.9-.833,2.392-2.223,3.9-3.645-2.4,1.594-5.788,3.866-10.567,7.093a8.758,8.758,0,0,1-5.041,1.8,29.168,29.168,0,0,1-6.457-1.5c-.264-.086-.524-.168-.775-.247l-.064-.02a14.749,14.749,0,0,1-2.764-1.056,2.687,2.687,0,0,1-1.567-2.751c.208-1.658,2.11-2.623,3.753-3.278,11.288-4.918,18.925-8.208,22.7-9.778,11.4-4.741,13.346-5.381,15.038-5.411ZM40.379,41.882c.082,0,.165,0,.247-.011.441-.041,1.045-.936,1.4-2.845,1.2-6.4,3.8-21.638,4.392-27.86a5.524,5.524,0,0,0-.051-1.16.577.577,0,0,0-.054-.2,1.316,1.316,0,0,0-.585-.135h-.007c-1.27.022-4.018,1.042-14,5.2-3.764,1.566-11.394,4.852-22.678,9.769L9,24.653a7.466,7.466,0,0,0-1.861.965,15.07,15.07,0,0,0,2.222.814l.065.021c.258.081.525.166.8.254a26.152,26.152,0,0,0,5.646,1.363h.064a6.211,6.211,0,0,0,3.328-1.312c16.132-10.89,16.49-10.971,16.905-11.065a3.181,3.181,0,0,1,.713-.092,1.978,1.978,0,0,1,1.342.492,2.183,2.183,0,0,1,.617,2.068c-.165.7-.633,1.4-9.4,9.55-.77.716-1.566,1.455-1.688,1.581-.32.332-.636.637-.942.933-.579.558-1.532,1.476-1.5,1.8,0,0,.055.443,1.366,1.307,1.6,1.055,2.9,1.937,4.148,2.79,1.353.922,2.753,1.875,4.536,3.044.474.311.918.627,1.348.933C38.057,41.06,39.21,41.882,40.379,41.882Z" transform="translate(803.264 2555.358)" fill="#1ed65b"/>
    <path id="telegram-fill-svgrepo-com_-_Рамка" data-name="telegram-fill-svgrepo-com - Рамка" d="M45.457,5.974a4.573,4.573,0,0,1,2.744.9,3.611,3.611,0,0,1,1.27,2.277,8.757,8.757,0,0,1,.085,2.064c-.6,6.328-3.228,21.712-4.435,28.164a8.6,8.6,0,0,1-1.877,4.326,3.939,3.939,0,0,1-2.577,1.3c-.186.017-.375.026-.561.026-2.264,0-3.982-1.225-5.643-2.409-.408-.291-.831-.592-1.25-.866-1.807-1.184-3.218-2.145-4.582-3.075l0,0c-1.241-.845-2.525-1.72-4.1-2.76-1.159-.764-2.72-1.994-2.892-3.851-.181-1.963,1.257-3.35,2.525-4.573.288-.277.585-.564.862-.851.059-.061.153-.153.307-.3q-2.043,1.374-4.409,2.971a9.323,9.323,0,0,1-5.393,1.9,29.629,29.629,0,0,1-6.629-1.53c-.259-.084-.515-.165-.763-.243l-.071-.022a15.119,15.119,0,0,1-2.881-1.107,3.677,3.677,0,0,1-1.653-1.754,3.135,3.135,0,0,1-.213-1.595C3.558,23,5.64,21.924,7.43,21.21c11.286-4.917,18.923-8.207,22.7-9.778,6-2.5,9.138-3.753,11.188-4.484a12.273,12.273,0,0,1,4.07-.974h.067ZM40.105,43.829c.149,0,.3-.007.451-.021,1.673-.154,2.842-1.761,3.382-4.648,1.2-6.434,3.821-21.767,4.42-28.057a7.643,7.643,0,0,0-.073-1.747,2.429,2.429,0,0,0-.842-1.546,3.4,3.4,0,0,0-1.984-.634h-.052c-1.576.029-3.6.7-14.814,5.365C26.82,14.112,19.185,17.4,7.9,22.316l-.017.007c-1.484.592-3.21,1.444-3.379,2.794a2.1,2.1,0,0,0,1.267,2.154,14.386,14.386,0,0,0,2.647,1.005l.072.023c.25.079.508.16.773.246a28.718,28.718,0,0,0,6.284,1.471h.11a8.286,8.286,0,0,0,4.578-1.7l0,0c4.353-2.938,7.909-5.325,10.57-7.095a.6.6,0,0,1,.746.938c-1.505,1.423-3,2.816-3.9,3.649-1.151,1.07-1.634,1.52-1.774,1.666-.292.3-.6.6-.893.883-1.178,1.136-2.291,2.208-2.163,3.6.124,1.341,1.4,2.33,2.356,2.958,1.587,1.046,2.875,1.923,4.12,2.771l0,0c1.36.927,2.767,1.885,4.565,3.063.439.287.871.6,1.288.893C36.667,42.718,38.225,43.829,40.105,43.829ZM45.454,8.8a1.831,1.831,0,0,1,.955.26.6.6,0,0,1,.124.129,1.036,1.036,0,0,1,.156.444,6.071,6.071,0,0,1,.057,1.319c-.594,6.239-3.2,21.5-4.4,27.913a8.1,8.1,0,0,1-.731,2.3c-.346.646-.753.994-1.207,1.036-.1.009-.2.014-.3.014-1.361,0-2.592-.878-4.017-1.894-.426-.3-.864-.616-1.328-.92-1.785-1.17-3.185-2.124-4.539-3.046l0,0c-1.25-.851-2.542-1.731-4.141-2.784-1.293-.852-1.6-1.423-1.634-1.751-.048-.523.4-1.055,1.683-2.292.3-.292.615-.593.926-.917.125-.129.727-.689,1.7-1.6L28.762,27c8.409-7.818,9.093-8.709,9.219-9.247a1.588,1.588,0,0,0-.431-1.481,1.385,1.385,0,0,0-.943-.34,2.6,2.6,0,0,0-.581.078c-.363.082-1.871.966-16.7,10.976A6.769,6.769,0,0,1,15.66,28.4h-.077A26.15,26.15,0,0,1,9.764,27c-.269-.087-.533-.17-.788-.251l-.07-.022a15.107,15.107,0,0,1-2.336-.864.6.6,0,0,1-.081-.993A8.234,8.234,0,0,1,8.5,23.822l.033-.014c11.286-4.917,18.917-8.2,22.683-9.771C41.4,9.8,44.061,8.821,45.439,8.8h.015ZM45.526,10a.648.648,0,0,0-.069,0c-1.166.023-4,1.083-13.779,5.149C27.917,16.712,20.29,20,9.008,24.913l-.009,0-.042.018-.009,0c-.281.112-.52.215-.723.31.35.119.722.236,1.042.337l.071.022c.258.081.524.165.8.254a26.237,26.237,0,0,0,5.47,1.334h.057a5.664,5.664,0,0,0,2.985-1.207l0,0C34.877,15.034,35.209,14.958,35.76,14.833a3.786,3.786,0,0,1,.847-.107,2.571,2.571,0,0,1,1.742.644,2.8,2.8,0,0,1,.8,2.656c-.123.524-.387.975-1.626,2.262-1.3,1.348-3.673,3.617-7.945,7.589l-.009.008c-.689.64-1.546,1.438-1.657,1.552-.325.338-.646.647-.956.946A14.04,14.04,0,0,0,25.7,31.709a4.688,4.688,0,0,0,1.034.849c1.606,1.058,2.9,1.941,4.156,2.795l.005,0c1.35.919,2.746,1.87,4.522,3.034.484.317.932.636,1.366.945,1.259.9,2.344,1.671,3.321,1.671.05,0,.1,0,.151-.006a4.315,4.315,0,0,0,.908-2.36c1.2-6.391,3.794-21.6,4.385-27.806A4.835,4.835,0,0,0,45.526,10Z" transform="translate(803.538 2555.632)" fill="#161616"/>
  </g>
</svg>
