<svg xmlns="http://www.w3.org/2000/svg" width="52.774" height="40.079" viewBox="0 0 52.774 40.079">
  <g id="ya_games" transform="translate(0.714 -1.3)">
    <path id="Контур_300" data-name="Контур 300" d="M14.583,3v.539c-2.567.006-4.814.016-6.145.026C2.96,10.471.784,25.261.03,32.318a5.437,5.437,0,0,0,10.009,3.443l9.04-14.036a33.735,33.735,0,0,1,6.405-.805,41.333,41.333,0,0,1,6.771.783l9.053,14.056a5.435,5.435,0,0,0,10.009-3.443c-.754-7.054-2.93-21.844-8.408-28.75-1.2-.01-3.135-.019-5.378-.026V3Z" transform="translate(0 2.209)" fill="#161616" stroke="#1ed65b" stroke-width="1.4"/>
    <path id="Контур_301" data-name="Контур 301" d="M33.355,2.5,30.591,5,47.178,20.114l2.212-4.146L46.717,4.08Zm-23.228,0L.5,12.127l9.627,9.627,9.627-9.627Z" transform="translate(1.105 1.105)" fill="#161616"/>
    <path id="Контур_302" data-name="Контур 302" d="M31.463,13.232A11.232,11.232,0,1,0,20.232,24.463,11.232,11.232,0,0,0,31.463,13.232Zm-18.452,0a2.407,2.407,0,1,0,2.408-2.316A2.407,2.407,0,0,0,13.011,13.232Zm12.034,2.407a2.407,2.407,0,1,1,2.279-2.407,2.407,2.407,0,0,1-2.279,2.407Zm-7.22-7.22a2.407,2.407,0,1,0,2.407-2.279A2.407,2.407,0,0,0,17.825,8.418Zm2.407,12.034a2.407,2.407,0,1,1,2.314-2.407,2.407,2.407,0,0,1-2.314,2.407Z" transform="translate(19.882 0)" fill="none" stroke="#1ed65b" stroke-width="1.4" fill-rule="evenodd"/>
    <path id="Контур_303" data-name="Контур 303" d="M22.463,13.232A11.232,11.232,0,1,1,11.232,2,11.232,11.232,0,0,1,22.463,13.232Zm-6.418-1.6a1.6,1.6,0,0,1,0,3.209H12.83v3.209a1.6,1.6,0,0,1-3.209,0V14.836H6.412a1.6,1.6,0,0,1,0-3.209H9.621V8.418a1.6,1.6,0,0,1,3.209,0v3.209h3.209Z" transform="translate(0.001 0)" fill="#161616" stroke="#1ed65b" stroke-width="1.4" fill-rule="evenodd"/>
  </g>
</svg>
