<svg xmlns="http://www.w3.org/2000/svg" width="53.013" height="38.356" viewBox="0 0 53.013 38.356">
  <g id="yout" transform="translate(-980.556 -2561.429)">
    <path id="youtube-_168_" data-name="youtube-[#168]" d="M268.588,7318.775c-8.3,0-15.694-.328-17.972-.794a7.767,7.767,0,0,1-4.049-2.123,8.413,8.413,0,0,1-1.922-3.635c-.541-1.814-1.079-7.664-1.014-13.47.087-7.716,1.155-12.582,3.174-14.46a7.924,7.924,0,0,1,3.978-2.006c2.566-.491,11.69-.665,18.719-.665s16.153.174,18.734.668a7.855,7.855,0,0,1,4.68,2.8l.072.1c1.846,2.91,2.473,10.234,2.448,15.62-.017,3.629-.354,12.369-3.124,15.139a8.005,8.005,0,0,1-4.159,2.164l-.158.021C280.91,7318.664,273.531,7318.775,268.588,7318.775Zm.914-34.248c-8.95,0-16.259.248-18.188.615a5.066,5.066,0,0,0-2.54,1.286c-.489.457-2.129,2.725-2.238,12.356a63.427,63.427,0,0,0,.895,12.616,5.806,5.806,0,0,0,1.209,2.424,4.938,4.938,0,0,0,2.56,1.312c1.779.365,8.324.733,17.389.733,6.882,0,13.662-.222,19.1-.629a5.08,5.08,0,0,0,2.574-1.357c1.062-1.06,2.23-5.617,2.264-13.088.028-6.215-.8-12.072-1.963-13.995a4.976,4.976,0,0,0-2.878-1.658C285.761,7284.775,278.451,7284.527,269.5,7284.527Zm-6.344,24.388V7290.5l2.072.975c3.442,1.624,6.28,3.178,9.285,4.822,1.252.685,2.546,1.394,3.885,2.1l2.354,1.254-2.328,1.3c-2.775,1.549-6.06,3.231-9.538,5.012q-1.766.9-3.611,1.854Zm2.905-13.809v9.041q.757-.389,1.5-.768c2.514-1.289,4.927-2.523,7.106-3.689q-.786-.428-1.549-.846C270.784,7297.566,268.55,7296.345,266.063,7295.106Z" transform="translate(737.532 -4719.591)" fill="#1ed65b"/>
    <path id="youtube-_168_-_Рамка" data-name="youtube-[#168] - Рамка" d="M268.314,7319.1c-8.332,0-15.772-.332-18.093-.807a8.364,8.364,0,0,1-4.357-2.29,8.969,8.969,0,0,1-2.07-3.888c-.554-1.856-1.1-7.785-1.038-13.646a48.694,48.694,0,0,1,.876-9.541c.563-2.567,1.378-4.318,2.489-5.353l0,0a8.533,8.533,0,0,1,4.273-2.153c2.609-.5,11.773-.675,18.829-.675s16.231.178,18.847.679a8.473,8.473,0,0,1,5.044,3.022l.013.018.089.127c.891,1.4,1.569,3.8,2.014,7.123a66.505,66.505,0,0,1,.528,8.821,59.732,59.732,0,0,1-.536,7.975c-.542,3.742-1.472,6.295-2.764,7.587l0,0a8.614,8.614,0,0,1-4.47,2.325l-.033.006-.191.023C280.668,7318.99,273.27,7319.1,268.314,7319.1Zm-21.375-34.643a9.233,9.233,0,0,0-2.132,4.729,47.541,47.541,0,0,0-.849,9.3c-.065,5.752.459,11.517.989,13.292a7.836,7.836,0,0,0,1.773,3.384l0,0a7.168,7.168,0,0,0,3.739,1.952c2.25.461,9.591.782,17.852.782,4.932,0,12.29-.111,19.345-.641l.125-.017a7.414,7.414,0,0,0,3.832-2c1.088-1.09,1.925-3.479,2.422-6.906a59.714,59.714,0,0,0,.523-7.809,65.246,65.246,0,0,0-.517-8.655,18.122,18.122,0,0,0-1.829-6.626l-.057-.08a7.241,7.241,0,0,0-4.309-2.562c-2.533-.485-11.614-.658-18.621-.658s-16.082.172-18.606.654h-.006A7.344,7.344,0,0,0,246.938,7284.46Zm21.375,31.736c-9.111,0-15.7-.375-17.509-.745a5.54,5.54,0,0,1-2.869-1.48,6.288,6.288,0,0,1-1.356-2.676,62.553,62.553,0,0,1-.919-12.792c.109-9.6,1.735-12.14,2.429-12.788l.005,0a5.673,5.673,0,0,1,2.835-1.434c1.972-.374,9.324-.625,18.3-.625s16.332.252,18.3.626a5.544,5.544,0,0,1,3.237,1.875l.023.029.019.032c1.236,2.036,2.079,7.92,2.05,14.31a50.339,50.339,0,0,1-.758,9.061c-.305,1.568-.845,3.614-1.683,4.451l0,0a5.682,5.682,0,0,1-2.877,1.519l-.037.007-.037,0C282.022,7315.973,275.221,7316.2,268.314,7316.2Zm-19.406-29.6a5.353,5.353,0,0,0-1.088,2.45,40.976,40.976,0,0,0-.956,9.471,62.939,62.939,0,0,0,.87,12.438,5.124,5.124,0,0,0,1.06,2.173,4.347,4.347,0,0,0,2.254,1.146c1.744.357,8.236.72,17.267.72,6.862,0,13.615-.222,19.021-.624a4.476,4.476,0,0,0,2.234-1.187c.364-.365.91-1.562,1.351-3.828a49.134,49.134,0,0,0,.736-8.837,61.54,61.54,0,0,0-.527-8.521,16.1,16.1,0,0,0-1.329-5.127,4.392,4.392,0,0,0-2.5-1.412c-1.9-.36-9.164-.6-18.074-.6s-16.173.243-18.075.6h-.005A4.489,4.489,0,0,0,248.908,7286.6Zm13.375,23.033v-20.351l2.929,1.379c3.425,1.615,6.244,3.157,9.229,4.79l.118.064c1.241.679,2.524,1.381,3.848,2.084l3.328,1.772-3.291,1.837c-2.786,1.555-6.075,3.238-9.557,5.021l-3.61,1.854Zm1.2-18.455v16.479l1.242-.642c1.358-.7,2.492-1.281,3.613-1.855,3.472-1.777,6.751-3.457,9.519-5l1.365-.762-1.38-.735c-1.331-.706-2.617-1.41-3.861-2.091l-.118-.064c-2.969-1.624-5.772-3.157-9.165-4.757Zm1.7,13.685v-11l.869.434c2.534,1.261,4.844,2.525,7.077,3.749.495.271.994.543,1.548.846l.979.532-.983.525c-2.122,1.135-4.442,2.324-6.9,3.583l-.236.121-1.481.757Zm1.2-9.05v7.082l.607-.311.234-.12c2.076-1.064,4.055-2.078,5.9-3.05l-.57-.312C270.592,7298.022,268.568,7296.914,266.391,7295.809Z" transform="translate(737.806 -4719.317)" fill="#161616"/>
  </g>
</svg>
